<?xml version="1.0" encoding="utf-8"?>
<!-- Generator: Adobe Illustrator 18.0.0, SVG Export Plug-In . SVG Version: 6.00 Build 0)  -->
<!DOCTYPE svg PUBLIC "-//W3C//DTD SVG 1.0//EN" "http://www.w3.org/TR/2001/REC-SVG-20010904/DTD/svg10.dtd">
<svg version="1.0" id="Layer_1" xmlns="http://www.w3.org/2000/svg" xmlns:xlink="http://www.w3.org/1999/xlink" x="0px" y="0px"
	 viewBox="0 0 512 512" enable-background="new 0 0 512 512" xml:space="preserve">
<path fill="none" stroke="#231F20" stroke-width="15" stroke-miterlimit="10" d="M231,252.4"/>
<path fill="none" stroke="#231F20" stroke-width="15" stroke-miterlimit="10" d="M104.6,252.4"/>
<path fill="none" stroke="#231F20" stroke-width="15" stroke-miterlimit="10" d="M140.6,288.4"/>
<g>
	<polygon fill="#37B34A" points="107.2,481.1 0,481.1 25.2,418.1 0,355.2 96.5,355.2 	"/>
	<polygon fill="#37B34A" points="404.8,481.1 512,481.1 486.8,418.1 512,355.2 415.5,355.2 	"/>
	<polygon fill="#187B30" points="107.2,481.1 77.9,464.3 67.1,338.4 96.5,355.2 	"/>
	<polygon fill="#187B30" points="404.8,481.1 434.1,464.3 444.9,338.4 415.5,355.2 	"/>
	<polygon fill="#2A963E" points="434.1,464.3 77.9,464.3 67.1,338.4 444.9,338.4 	"/>
</g>
<path fill="#FFFFFF" stroke="#EF5350" stroke-width="15" stroke-miterlimit="10" d="M349.6,306.8H168.9c-10.9,0-19.7-8.8-19.7-19.7
	V106.5c0-10.9,8.8-19.7,19.7-19.7h180.7c10.9,0,19.7,8.8,19.7,19.7v180.7C369.2,298,360.4,306.8,349.6,306.8z"/>
<g>
	<polygon fill="none" stroke="#EF5350" stroke-width="8.0462" stroke-miterlimit="10" points="238.9,170.8 321.9,134.1 285.3,217.2 
			"/>
	<polygon fill="none" stroke="#EF5350" stroke-width="8.0462" stroke-miterlimit="10" points="279.6,222.8 196.5,259.5 233.2,176.4 
			"/>
</g>
<g>
	<path fill="#FFFFFF" d="M129.7,428.2H98.8v-53.5h30.8v9.3h-19.5v11.8h18.1v9.3h-18.1v13.8h19.5V428.2z"/>
	<path fill="#FFFFFF" d="M184.1,428.2h-13l-12.5-20.3l-12.5,20.3h-12.2l17.8-27.6l-16.6-25.9h12.5l11.5,19.3l11.3-19.3h12.2
		L166,401.2L184.1,428.2z"/>
	<path fill="#FFFFFF" d="M227.8,391.3c0,5.8-1.8,10.2-5.4,13.2c-3.6,3.1-8.7,4.6-15.4,4.6h-4.9v19h-11.4v-53.5H208
		c6.5,0,11.4,1.4,14.8,4.2S227.8,385.8,227.8,391.3z M202.2,399.8h3.7c3.5,0,6.1-0.7,7.8-2.1c1.7-1.4,2.6-3.4,2.6-6
		c0-2.7-0.7-4.6-2.2-5.9s-3.7-1.9-6.8-1.9h-5.2V399.8z"/>
	<path fill="#FFFFFF" d="M238,428.2v-53.5h11.4v44.2H271v9.4H238z"/>
	<path fill="#FFFFFF" d="M328.2,401.3c0,8.9-2.2,15.7-6.6,20.4c-4.4,4.8-10.7,7.1-18.9,7.1s-14.5-2.4-18.9-7.1
		c-4.4-4.8-6.6-11.6-6.6-20.5s2.2-15.7,6.6-20.4c4.4-4.7,10.7-7,19-7c8.2,0,14.5,2.4,18.9,7.1C326,385.6,328.2,392.5,328.2,401.3z
		 M289.1,401.3c0,6,1.1,10.5,3.4,13.5c2.3,3,5.7,4.5,10.2,4.5c9.1,0,13.6-6,13.6-18.1c0-12.1-4.5-18.1-13.5-18.1
		c-4.5,0-7.9,1.5-10.2,4.6C290.3,390.8,289.1,395.4,289.1,401.3z"/>
	<path fill="#FFFFFF" d="M350.6,407.6v20.5h-11.4v-53.5h15.6c7.3,0,12.7,1.3,16.1,4s5.2,6.7,5.2,12.1c0,3.1-0.9,6-2.6,8.4
		c-1.7,2.5-4.2,4.4-7.4,5.8l15.7,23.3h-12.6l-12.8-20.5H350.6z M350.6,398.4h3.7c3.6,0,6.2-0.6,7.9-1.8s2.6-3.1,2.6-5.6
		c0-2.5-0.9-4.3-2.6-5.4s-4.4-1.6-8.1-1.6h-3.4V398.4z"/>
	<path fill="#FFFFFF" d="M419.6,428.2h-30.8v-53.5h30.8v9.3h-19.5v11.8h18.1v9.3h-18.1v13.8h19.5V428.2z"/>
</g>
</svg>
