<?xml version="1.0" encoding="utf-8"?>
<!-- Generator: Adobe Illustrator 18.0.0, SVG Export Plug-In . SVG Version: 6.00 Build 0)  -->
<!DOCTYPE svg PUBLIC "-//W3C//DTD SVG 1.0//EN" "http://www.w3.org/TR/2001/REC-SVG-20010904/DTD/svg10.dtd">
<svg version="1.0" id="Layer_1" xmlns="http://www.w3.org/2000/svg" xmlns:xlink="http://www.w3.org/1999/xlink" x="0px" y="0px"
	 viewBox="0 0 512 512" enable-background="new 0 0 512 512" xml:space="preserve">
<path fill="none" stroke="#231F20" stroke-width="15" stroke-miterlimit="10" d="M231,252.4"/>
<path fill="none" stroke="#231F20" stroke-width="15" stroke-miterlimit="10" d="M104.6,252.4"/>
<path fill="none" stroke="#231F20" stroke-width="15" stroke-miterlimit="10" d="M140.6,288.4"/>
<path fill="#FFFFFF" stroke="#EF5350" stroke-width="14.4105" stroke-miterlimit="10" d="M149.2,244.6v46.1
	c0,8.9,7.2,16.1,16.1,16.1h187.8c8.9,0,16.1-7.2,16.1-16.1V102.9c0-8.9-7.2-16.1-16.1-16.1H165.3c-8.9,0-16.1,7.2-16.1,16.1V149"/>
<polyline fill="none" stroke="#EF5350" stroke-width="14.4105" stroke-linecap="round" stroke-miterlimit="10" points="149.3,231.6 
	193.4,196.6 149.2,162 "/>
<polygon fill="#37B34A" points="107.2,481.1 0,481.1 25.2,418.1 0,355.2 96.5,355.2 "/>
<polygon fill="#37B34A" points="404.8,481.1 512,481.1 486.8,418.1 512,355.2 415.5,355.2 "/>
<polygon fill="#187B30" points="107.2,481.1 77.9,464.3 67.1,338.4 96.5,355.2 "/>
<polygon fill="#187B30" points="404.8,481.1 434.1,464.3 444.9,338.4 415.5,355.2 "/>
<polygon fill="#2A963E" points="434.1,464.3 77.9,464.3 67.1,338.4 444.9,338.4 "/>
<path fill="#FFFFFF" d="M139.8,428.2v-53.5h11.4v44.2h21.7v9.4H139.8z"/>
<path fill="#FFFFFF" d="M230.1,401.3c0,8.9-2.2,15.7-6.6,20.4c-4.4,4.8-10.7,7.1-18.9,7.1s-14.5-2.4-18.9-7.1
	c-4.4-4.8-6.6-11.6-6.6-20.5s2.2-15.7,6.6-20.4c4.4-4.7,10.7-7,19-7c8.2,0,14.5,2.4,18.9,7.1C227.9,385.6,230.1,392.5,230.1,401.3z
	 M191,401.3c0,6,1.1,10.5,3.4,13.5c2.3,3,5.7,4.5,10.2,4.5c9.1,0,13.6-6,13.6-18.1c0-12.1-4.5-18.1-13.5-18.1
	c-4.5,0-7.9,1.5-10.2,4.6C192.1,390.8,191,395.4,191,401.3z"/>
<path fill="#FFFFFF" d="M261.5,398.1h21.2v27.8c-3.4,1.1-6.7,1.9-9.7,2.4c-3,0.5-6.1,0.7-9.3,0.7c-8.1,0-14.3-2.4-18.5-7.1
	c-4.3-4.7-6.4-11.6-6.4-20.5c0-8.6,2.5-15.4,7.4-20.2c4.9-4.8,11.8-7.2,20.6-7.2c5.5,0,10.8,1.1,15.9,3.3l-3.8,9.1
	c-3.9-2-8-2.9-12.2-2.9c-4.9,0-8.8,1.6-11.8,4.9s-4.4,7.7-4.4,13.3c0,5.8,1.2,10.2,3.6,13.3c2.4,3.1,5.8,4.6,10.4,4.6
	c2.4,0,4.8-0.2,7.2-0.7v-11.2h-10.1V398.1z"/>
<path fill="#FFFFFF" d="M315.5,428.2h-24.4v-6.4l6.5-3v-34.6l-6.5-3v-6.4h24.4v6.4l-6.5,3v34.6l6.5,3V428.2z"/>
<path fill="#FFFFFF" d="M372.2,428.2h-14.4l-23.3-40.5h-0.3c0.5,7.2,0.7,12.3,0.7,15.3v25.2h-10.1v-53.5H339l23.3,40.1h0.3
	c-0.4-7-0.5-11.9-0.5-14.8v-25.3h10.2V428.2z"/>
</svg>
