<?xml version="1.0" encoding="utf-8"?>
<!-- Generator: Adobe Illustrator 18.0.0, SVG Export Plug-In . SVG Version: 6.00 Build 0)  -->
<!DOCTYPE svg PUBLIC "-//W3C//DTD SVG 1.0//EN" "http://www.w3.org/TR/2001/REC-SVG-20010904/DTD/svg10.dtd">
<svg version="1.0" id="Layer_1" xmlns="http://www.w3.org/2000/svg" xmlns:xlink="http://www.w3.org/1999/xlink" x="0px" y="0px"
	 viewBox="0 0 512 512" enable-background="new 0 0 512 512" xml:space="preserve">
<path fill="none" stroke="#231F20" stroke-width="15" stroke-miterlimit="10" d="M231,252.4"/>
<path fill="none" stroke="#231F20" stroke-width="15" stroke-miterlimit="10" d="M104.6,252.4"/>
<path fill="none" stroke="#231F20" stroke-width="15" stroke-miterlimit="10" d="M140.6,288.4"/>
<g>
	<polygon fill="#37B34A" points="107.2,481.1 0,481.1 25.2,418.1 0,355.2 96.5,355.2 	"/>
	<polygon fill="#37B34A" points="404.8,481.1 512,481.1 486.8,418.1 512,355.2 415.5,355.2 	"/>
	<polygon fill="#187B30" points="107.2,481.1 77.9,464.3 67.1,338.4 96.5,355.2 	"/>
	<polygon fill="#187B30" points="404.8,481.1 434.1,464.3 444.9,338.4 415.5,355.2 	"/>
	<polygon fill="#2A963E" points="434.1,464.3 77.9,464.3 67.1,338.4 444.9,338.4 	"/>
</g>
<g>
	<path fill="#FFFFFF" d="M95.1,407.6v20.5H83.7v-53.5h15.6c7.3,0,12.7,1.3,16.1,4s5.2,6.7,5.2,12.1c0,3.1-0.9,6-2.6,8.4
		c-1.7,2.5-4.2,4.4-7.4,5.8l15.7,23.3h-12.6l-12.8-20.5H95.1z M95.1,398.4h3.7c3.6,0,6.2-0.6,7.9-1.8c1.7-1.2,2.6-3.1,2.6-5.6
		c0-2.5-0.9-4.3-2.6-5.4c-1.7-1.1-4.4-1.6-8.1-1.6h-3.4V398.4z"/>
	<path fill="#FFFFFF" d="M164.1,428.1h-30.8v-53.5h30.8v9.3h-19.5v11.8h18.1v9.3h-18.1v13.8h19.5V428.1z"/>
	<path fill="#FFFFFF" d="M195.6,398.1h21.2v27.8c-3.4,1.1-6.7,1.9-9.7,2.4c-3,0.5-6.1,0.7-9.3,0.7c-8.1,0-14.3-2.4-18.5-7.1
		c-4.3-4.7-6.4-11.6-6.4-20.5c0-8.6,2.5-15.4,7.4-20.2c4.9-4.8,11.8-7.2,20.6-7.2c5.5,0,10.8,1.1,15.9,3.3l-3.8,9.1
		c-3.9-2-8-2.9-12.2-2.9c-4.9,0-8.8,1.6-11.8,4.9s-4.4,7.7-4.4,13.3c0,5.8,1.2,10.2,3.6,13.3c2.4,3.1,5.8,4.6,10.4,4.6
		c2.4,0,4.8-0.2,7.2-0.7v-11.2h-10.1V398.1z"/>
	<path fill="#FFFFFF" d="M249.6,428.1h-24.4v-6.4l6.5-3v-34.6l-6.5-3v-6.4h24.4v6.4l-6.5,3v34.6l6.5,3V428.1z"/>
	<path fill="#FFFFFF" d="M290.3,413.3c0,4.8-1.7,8.6-5.2,11.4c-3.5,2.8-8.3,4.2-14.5,4.2c-5.7,0-10.8-1.1-15.2-3.2v-10.5
		c3.6,1.6,6.7,2.7,9.2,3.4c2.5,0.7,4.8,1,6.9,1c2.5,0,4.4-0.5,5.7-1.4c1.3-1,2-2.4,2-4.2c0-1-0.3-2-0.9-2.8s-1.4-1.6-2.6-2.4
		c-1.1-0.8-3.4-2-6.9-3.6c-3.3-1.5-5.7-3-7.4-4.4s-2.9-3.1-3.9-4.9s-1.5-4.1-1.5-6.6c0-4.7,1.6-8.5,4.8-11.2
		c3.2-2.7,7.6-4.1,13.3-4.1c2.8,0,5.4,0.3,8,1c2.5,0.7,5.2,1.6,7.9,2.8l-3.7,8.8c-2.9-1.2-5.2-2-7.1-2.5c-1.9-0.5-3.7-0.7-5.5-0.7
		c-2.1,0-3.8,0.5-4.9,1.5c-1.1,1-1.7,2.3-1.7,3.9c0,1,0.2,1.9,0.7,2.6c0.5,0.7,1.2,1.5,2.2,2.2c1,0.7,3.4,1.9,7.2,3.8
		c5,2.4,8.4,4.8,10.3,7.2S290.3,409.8,290.3,413.3z"/>
	<path fill="#FFFFFF" d="M320.7,428.1h-11.4v-44.1h-14.5v-9.4h40.4v9.4h-14.5V428.1z"/>
	<path fill="#FFFFFF" d="M374.3,428.1h-30.8v-53.5h30.8v9.3h-19.5v11.8H373v9.3h-18.1v13.8h19.5V428.1z"/>
	<path fill="#FFFFFF" d="M396.8,407.6v20.5h-11.4v-53.5h15.6c7.3,0,12.7,1.3,16.1,4s5.2,6.7,5.2,12.1c0,3.1-0.9,6-2.6,8.4
		c-1.7,2.5-4.2,4.4-7.4,5.8l15.7,23.3h-12.6l-12.8-20.5H396.8z M396.8,398.4h3.7c3.6,0,6.2-0.6,7.9-1.8s2.6-3.1,2.6-5.6
		c0-2.5-0.9-4.3-2.6-5.4s-4.4-1.6-8.1-1.6h-3.4V398.4z"/>
</g>
<g>
	<path fill="#FFFFFF" stroke="#EF5350" stroke-width="14.4105" stroke-miterlimit="10" d="M301.6,86.8H168.9
		c-10.9,0-19.7,8.8-19.7,19.7v180.7c0,10.9,8.8,19.7,19.7,19.7h180.7c10.9,0,19.7-8.8,19.7-19.7V156"/>
	<polyline fill="none" stroke="#EF5350" stroke-width="14.4105" stroke-linecap="round" stroke-miterlimit="10" points="320,86.8 
		313.5,142.7 369.2,135.9 	"/>
</g>
</svg>
