<?xml version="1.0" encoding="utf-8"?>
<!-- Generator: Adobe Illustrator 18.0.0, SVG Export Plug-In . SVG Version: 6.00 Build 0)  -->
<!DOCTYPE svg PUBLIC "-//W3C//DTD SVG 1.0//EN" "http://www.w3.org/TR/2001/REC-SVG-20010904/DTD/svg10.dtd">
<svg version="1.0" id="Background" xmlns="http://www.w3.org/2000/svg" xmlns:xlink="http://www.w3.org/1999/xlink" x="0px" y="0px"
	 viewBox="0 0 1024 1024" enable-background="new 0 0 1024 1024" xml:space="preserve">
<g>
	<g>
		<path fill="#37B34A" d="M575.7,976.1c0,0-50.9-62-169.6-82.1c-115.6-27-255.4-139.8-291.3-298.2C73.3,439,143.3,274.9,232.7,198.2
			c88.8-80.5,172-93,170.3-94.1c2,2.4-80.5,16.8-167.1,97.6c-87.3,77.1-153.7,239-111.6,391.7C161,747.7,297.9,855.7,409.7,880.8
			c26.8,4.1,50.7,10.5,71.6,18c78.9,28,109.3,64.1,109.3,64.1L575.7,976.1z"/>
	</g>
	<g>
		<path fill="#37B34A" d="M451.4,976.1c0,0,50.9-62,169.6-82.1c115.6-27,255.4-139.8,291.3-298.2c41.6-156.9-28.4-320.9-117.8-397.6
			c-88.8-80.5-172-93-170.3-94.1c-2,2.4,80.5,16.8,167,97.6c87.3,77.1,153.7,239,111.6,391.7c-36.6,154.2-173.5,262.2-285.3,287.3
			c-26.8,4.1-50.7,10.5-71.6,18c-78.9,28-109.3,64.1-109.3,64.1L451.4,976.1z"/>
	</g>
	<g>
		<g>
			<path fill="#37B34A" d="M371.9,796c0,0,32.4,11.1,43.1,36.9c13.4,32.3,7.6,59.3,7.6,59.3s-32.4-16.9-43.3-34.3
				C364.1,833.3,371.9,796,371.9,796z"/>
			<path fill="#37B34A" d="M315.1,937.7c0,0,32.7,10,56.6-4.5c29.8-18.2,41-43.4,41-43.4s-36.1-5.4-55.2,2.3
				C330.7,903,315.1,937.7,315.1,937.7z"/>
		</g>
		<g>
			<path fill="#37B34A" d="M321.5,768.2c0,0,29.3,16.3,35.3,43c7.4,33.4-2.7,58.5-2.7,58.5s-28.4-21.8-35.9-40.5
				C307.6,802.9,321.5,768.2,321.5,768.2z"/>
			<path fill="#37B34A" d="M242.6,895.3c0,0,29.9,15.3,55.4,5.3c31.9-12.5,47-34.9,47-34.9s-34-11.4-53.7-7.2
				C263.6,864.4,242.6,895.3,242.6,895.3z"/>
		</g>
		<g>
			<path fill="#37B34A" d="M276.3,732.1c0,0,25.5,20.7,26.8,47.5c1.5,33.5-12.6,56-12.6,56s-23.7-25.9-27.8-45.2
				C256.9,763.2,276.3,732.1,276.3,732.1z"/>
			<path fill="#37B34A" d="M178.5,841.3c0,0,26.2,19.8,52.6,14.5c32.9-6.6,51.3-25.7,51.3-25.7s-30.8-16.8-50.6-16.1
				C204,815.1,178.5,841.3,178.5,841.3z"/>
		</g>
		<g>
			<path fill="#37B34A" d="M237.9,688.3c0,0,21.1,24.3,17.7,50.4c-4.2,32.6-21.7,51.9-21.7,51.9s-18.5-29-19.1-48.4
				C214,715.1,237.9,688.3,237.9,688.3z"/>
			<path fill="#37B34A" d="M124.9,777.1c0,0,21.9,23.6,48.3,22.9c32.9-0.8,53.9-16.1,53.9-16.1s-26.9-21.5-46.1-24.1
				C154,756.1,124.9,777.1,124.9,777.1z"/>
		</g>
		<g>
			<path fill="#37B34A" d="M207.4,638.7c0,0,16.3,27.1,8.5,51.7c-9.6,30.7-29.8,46.4-29.8,46.4s-12.9-31.1-10.2-49.9
				C179.8,660.4,207.4,638.7,207.4,638.7z"/>
			<path fill="#37B34A" d="M83.3,705.2c0,0,17.2,26.5,42.7,30.4c31.9,4.8,54.7-6.4,54.7-6.4s-22.3-25.3-40.4-31.1
				C114.9,689.9,83.3,705.2,83.3,705.2z"/>
		</g>
		<g>
			<path fill="#37B34A" d="M186.4,584.8c0,0,11.1,28.9-0.6,51.3c-14.5,28-36.6,39.7-36.6,39.7s-7.2-32.2-1.4-49.9
				C156,601,186.4,584.8,186.4,584.8z"/>
			<path fill="#37B34A" d="M55.3,627.8c0,0,12,28.5,36,36.6c29.9,10.1,53.9,3.2,53.9,3.2s-17.2-28.2-33.7-36.9
				C88.4,618.4,55.3,627.8,55.3,627.8z"/>
		</g>
		<g>
			<path fill="#37B34A" d="M174.8,528.2c0,0,5.8,29.8-9.2,49.4c-18.8,24.6-42.1,32.1-42.1,32.1s-1.4-32.3,7.2-48.4
				C142.7,538.8,174.8,528.2,174.8,528.2z"/>
			<path fill="#37B34A" d="M41,547.4c0,0,6.8,29.6,28.5,41.4c27.2,14.8,51.5,12.2,51.5,12.2s-11.8-30.1-26.2-41.3
				C74.5,544,41,547.4,41,547.4z"/>
		</g>
		<g>
			<path fill="#37B34A" d="M173.2,470.2c0,0,0.5,29.7-17.4,46.1c-22.3,20.5-46.1,23.8-46.1,23.8s4.1-31.4,15.2-45.5
				C140.5,474.9,173.2,470.2,173.2,470.2z"/>
			<path fill="#37B34A" d="M40.7,465.9c0,0,1.5,29.7,20.5,44.8c23.7,18.9,47.6,20.6,47.6,20.6s-6.3-31.1-18.3-44.4
				C73.7,468.4,40.7,465.9,40.7,465.9z"/>
		</g>
		<g>
			<path fill="#37B34A" d="M181.5,410.9c0,0-4.5,28.8-24.6,41.6c-25,16-48.5,15.1-48.5,15.1s9.3-29.6,22.4-41.3
				C149.1,409.9,181.5,410.9,181.5,410.9z"/>
			<path fill="#37B34A" d="M54.4,384.3c0,0-3.6,28.9,12.1,46.8c19.7,22.3,42.5,28,42.5,28s-0.8-31.1-10.1-45.9
				C85.8,392.2,54.4,384.3,54.4,384.3z"/>
		</g>
		<g>
			<path fill="#37B34A" d="M200.1,353.1c0,0-9.3,27-30.8,35.9c-26.9,11.2-49.4,6.4-49.4,6.4s14.1-27,28.7-36.1
				C169,346.6,200.1,353.1,200.1,353.1z"/>
			<path fill="#37B34A" d="M82,305.7c0,0-8.4,27.3,3.8,47.2c15.2,24.9,36.2,34.2,36.2,34.2s4.6-30.1-1.9-46
				C111,318.8,82,305.7,82,305.7z"/>
		</g>
		<g>
			<path fill="#37B34A" d="M228.8,299.5c0,0-13.5,24.5-35.8,29.4c-27.9,6.2-48.8-2.3-48.8-2.3s18.2-23.7,33.8-29.9
				C199.9,287.9,228.8,299.5,228.8,299.5z"/>
			<path fill="#37B34A" d="M122.8,233.7c0,0-12.7,24.9-4.4,46.2c10.4,26.6,29.1,39.2,29.1,39.2s9.5-28.3,6-44.8
				C148.6,251.2,122.8,233.7,122.8,233.7z"/>
		</g>
		<g>
			<path fill="#37B34A" d="M266.6,251.7c0,0-17.2,21.3-39.6,22.3c-27.9,1.3-46.7-10.5-46.7-10.5s21.6-19.8,37.7-23.2
				C240.7,235.6,266.6,251.7,266.6,251.7z"/>
			<path fill="#37B34A" d="M175.6,170.2c0,0-16.5,21.9-12.1,43.8c5.5,27.4,21.5,42.8,21.5,42.8s14-25.7,13.4-42.2
				C197.5,191.5,175.6,170.2,175.6,170.2z"/>
		</g>
		<g>
			<path fill="#37B34A" d="M311.9,211.7c0,0-20.3,17.6-42.1,14.8c-27.2-3.5-43.3-18.1-43.3-18.1s24.2-15.4,40.3-15.9
				C289.6,191.7,311.9,211.7,311.9,211.7z"/>
			<path fill="#37B34A" d="M237.8,117.5c0,0-19.7,18.3-19.2,40.2c0.7,27.4,13.4,44.9,13.4,44.9s17.9-22.4,20.1-38.4
				C255.3,141.8,237.8,117.5,237.8,117.5z"/>
		</g>
		<g>
			<path fill="#37B34A" d="M363,180.3c0,0-22.6,13.6-43.1,7.1c-25.7-8-38.7-24.8-38.7-24.8s26-10.8,41.6-8.5
				C344.9,157.3,363,180.3,363,180.3z"/>
			<path fill="#37B34A" d="M307.6,76.8c0,0-22.1,14.3-25.3,35.6c-4,26.6,5.3,45.6,5.3,45.6s21.1-18.6,25.9-33.7
				C320.4,103.2,307.6,76.8,307.6,76.8z"/>
		</g>
		<g>
			<path fill="#37B34A" d="M418,158.6c0,0-24.1,9.3-42.8-0.5c-23.4-12.1-33.1-30.5-33.1-30.5s26.9-6,41.6-1.1
				C404.4,133.3,418,158.6,418,158.6z"/>
			<path fill="#37B34A" d="M382.1,49.3c0,0-23.8,10.1-30.5,30c-8.4,24.9-2.7,44.9-2.7,44.9s23.5-14.4,30.8-28.1
				C389.9,76.9,382.1,49.3,382.1,49.3z"/>
		</g>
		<path fill="#37B34A" d="M383.2,110.8c0,0,17.8,10,33.6,4.6c19.7-6.8,29.5-20.1,29.5-20.1s-20.4-7.8-32.5-5.7
			C396.7,92.6,383.2,110.8,383.2,110.8z"/>
		<g>
			<path fill="#37B34A" d="M655.2,796c0,0-32.4,11.1-43.1,36.9c-13.4,32.3-7.6,59.3-7.6,59.3s32.4-16.9,43.3-34.3
				C663,833.3,655.2,796,655.2,796z"/>
			<path fill="#37B34A" d="M712,937.7c0,0-32.7,10-56.6-4.5c-29.8-18.2-41-43.4-41-43.4s36.1-5.4,55.2,2.3
				C696.3,903,712,937.7,712,937.7z"/>
		</g>
		<g>
			<path fill="#37B34A" d="M705.6,768.2c0,0-29.4,16.3-35.3,43c-7.5,33.4,2.7,58.5,2.7,58.5s28.4-21.8,35.9-40.5
				C719.4,802.9,705.6,768.2,705.6,768.2z"/>
			<path fill="#37B34A" d="M784.5,895.3c0,0-29.9,15.3-55.4,5.3c-31.9-12.5-47-34.9-47-34.9s34-11.4,53.7-7.2
				C763.5,864.4,784.5,895.3,784.5,895.3z"/>
		</g>
		<g>
			<path fill="#37B34A" d="M750.8,732.1c0,0-25.5,20.7-26.8,47.5c-1.5,33.5,12.6,56,12.6,56s23.7-25.9,27.8-45.2
				C770.1,763.2,750.8,732.1,750.8,732.1z"/>
			<path fill="#37B34A" d="M848.6,841.3c0,0-26.2,19.8-52.6,14.5c-32.9-6.6-51.3-25.7-51.3-25.7s30.8-16.8,50.6-16.1
				C823.1,815.1,848.6,841.3,848.6,841.3z"/>
		</g>
		<g>
			<path fill="#37B34A" d="M789.2,688.3c0,0-21.2,24.3-17.7,50.4c4.2,32.6,21.7,51.9,21.7,51.9s18.5-29,19.1-48.4
				C813.1,715.1,789.2,688.3,789.2,688.3z"/>
			<path fill="#37B34A" d="M902.2,777.1c0,0-22,23.6-48.3,22.9C821,799.3,800,784,800,784s26.9-21.5,46.1-24.1
				C873.1,756.1,902.2,777.1,902.2,777.1z"/>
		</g>
		<g>
			<path fill="#37B34A" d="M819.7,638.7c0,0-16.3,27.1-8.6,51.7c9.6,30.7,29.8,46.4,29.8,46.4s12.9-31.1,10.2-49.9
				C847.3,660.4,819.7,638.7,819.7,638.7z"/>
			<path fill="#37B34A" d="M943.8,705.2c0,0-17.2,26.5-42.7,30.4c-31.9,4.8-54.7-6.4-54.7-6.4s22.3-25.3,40.4-31.1
				C912.2,689.9,943.8,705.2,943.8,705.2z"/>
		</g>
		<g>
			<path fill="#37B34A" d="M840.7,584.8c0,0-11.1,28.9,0.5,51.3c14.5,28,36.6,39.7,36.6,39.7s7.2-32.2,1.4-49.9
				C871,601,840.7,584.8,840.7,584.8z"/>
			<path fill="#37B34A" d="M971.8,627.8c0,0-12.1,28.5-36,36.6c-29.9,10.1-53.9,3.2-53.9,3.2s17.2-28.2,33.7-36.9
				C938.6,618.4,971.8,627.8,971.8,627.8z"/>
		</g>
		<g>
			<path fill="#37B34A" d="M852.2,528.2c0,0-5.8,29.8,9.3,49.4c18.8,24.6,42.1,32.1,42.1,32.1s1.4-32.3-7.2-48.4
				C884.3,538.8,852.2,528.2,852.2,528.2z"/>
			<path fill="#37B34A" d="M986.1,547.4c0,0-6.8,29.6-28.5,41.4c-27.2,14.8-51.5,12.2-51.5,12.2s11.8-30.1,26.2-41.3
				C952.5,544,986.1,547.4,986.1,547.4z"/>
		</g>
		<g>
			<path fill="#37B34A" d="M853.9,470.2c0,0-0.5,29.7,17.4,46.1c22.3,20.5,46.1,23.8,46.1,23.8s-4.1-31.4-15.2-45.5
				C886.6,474.9,853.9,470.2,853.9,470.2z"/>
			<path fill="#37B34A" d="M986.3,465.9c0,0-1.5,29.7-20.5,44.8c-23.7,18.9-47.6,20.6-47.6,20.6s6.3-31.1,18.3-44.4
				C953.3,468.4,986.3,465.9,986.3,465.9z"/>
		</g>
		<g>
			<path fill="#37B34A" d="M845.6,410.9c0,0,4.5,28.8,24.6,41.6c25,16,48.5,15.1,48.5,15.1s-9.3-29.6-22.4-41.3
				C878,409.9,845.6,410.9,845.6,410.9z"/>
			<path fill="#37B34A" d="M972.7,384.3c0,0,3.6,28.9-12.1,46.8c-19.7,22.3-42.5,28-42.5,28s0.8-31.1,10.1-45.9
				C941.2,392.2,972.7,384.3,972.7,384.3z"/>
		</g>
		<g>
			<path fill="#37B34A" d="M827,353.1c0,0,9.3,27,30.8,35.9c26.9,11.2,49.4,6.4,49.4,6.4s-14.1-27-28.6-36.1
				C858.1,346.6,827,353.1,827,353.1z"/>
			<path fill="#37B34A" d="M945.1,305.7c0,0,8.4,27.3-3.8,47.2c-15.2,24.9-36.2,34.2-36.2,34.2s-4.6-30.1,1.9-46
				C916.1,318.8,945.1,305.7,945.1,305.7z"/>
		</g>
		<g>
			<path fill="#37B34A" d="M798.3,299.5c0,0,13.5,24.5,35.8,29.4c27.9,6.2,48.8-2.3,48.8-2.3s-18.2-23.7-33.8-29.9
				C827.2,287.9,798.3,299.5,798.3,299.5z"/>
			<path fill="#37B34A" d="M904.2,233.7c0,0,12.7,24.9,4.4,46.2c-10.4,26.6-29.1,39.2-29.1,39.2s-9.5-28.3-6-44.8
				C878.5,251.2,904.2,233.7,904.2,233.7z"/>
		</g>
		<g>
			<path fill="#37B34A" d="M760.4,251.7c0,0,17.2,21.3,39.6,22.3c28,1.3,46.7-10.5,46.7-10.5s-21.6-19.8-37.7-23.2
				C786.4,235.6,760.4,251.7,760.4,251.7z"/>
			<path fill="#37B34A" d="M851.5,170.2c0,0,16.5,21.9,12.1,43.8c-5.5,27.4-21.4,42.8-21.4,42.8s-14-25.7-13.4-42.2
				C829.6,191.5,851.5,170.2,851.5,170.2z"/>
		</g>
		<g>
			<path fill="#37B34A" d="M715.2,211.7c0,0,20.3,17.6,42,14.8c27.2-3.5,43.3-18.1,43.3-18.1s-24.2-15.4-40.3-15.9
				C737.5,191.7,715.2,211.7,715.2,211.7z"/>
			<path fill="#37B34A" d="M789.3,117.5c0,0,19.7,18.3,19.1,40.2c-0.7,27.4-13.4,44.9-13.4,44.9s-17.9-22.4-20.1-38.4
				C771.8,141.8,789.3,117.5,789.3,117.5z"/>
		</g>
		<g>
			<path fill="#37B34A" d="M664,180.3c0,0,22.6,13.6,43.1,7.1c25.7-8,38.7-24.8,38.7-24.8s-26-10.8-41.6-8.5
				C682.2,157.3,664,180.3,664,180.3z"/>
			<path fill="#37B34A" d="M719.5,76.8c0,0,22.1,14.3,25.3,35.6c4,26.6-5.3,45.6-5.3,45.6s-21.1-18.6-25.9-33.7
				C706.7,103.2,719.5,76.8,719.5,76.8z"/>
		</g>
		<g>
			<path fill="#37B34A" d="M609.1,158.6c0,0,24.1,9.3,42.8-0.5c23.4-12.1,33.1-30.5,33.1-30.5s-26.9-6-41.6-1.1
				C622.7,133.3,609.1,158.6,609.1,158.6z"/>
			<path fill="#37B34A" d="M645,49.3c0,0,23.8,10.1,30.5,30c8.4,24.9,2.7,44.9,2.7,44.9s-23.5-14.4-30.8-28.1
				C637.2,76.9,645,49.3,645,49.3z"/>
		</g>
		<path fill="#37B34A" d="M643.9,110.8c0,0-17.8,10-33.6,4.6c-19.7-6.8-29.5-20.1-29.5-20.1s20.4-7.8,32.5-5.7
			C630.3,92.6,643.9,110.8,643.9,110.8z"/>
	</g>
</g>
<path fill="none" stroke="#EF5350" stroke-width="4" stroke-miterlimit="10" d="M862.3,1022H161.7C73.5,1022,2,950.5,2,862.3V161.7
	C2,73.5,73.5,2,161.7,2h700.6C950.5,2,1022,73.5,1022,161.7v700.6C1022,950.5,950.5,1022,862.3,1022z"/>
<g>
	<path fill="#EF5350" d="M693,308.6c48.4,48.4,75,112.6,75,181c0,68.4-26.6,132.7-75,181c-48.4,48.4-112.6,75-181,75
		s-132.7-26.6-181-75c-48.4-48.4-75-112.6-75-181c0-68.4,26.6-132.7,75-181s112.6-75,181-75S644.7,260.3,693,308.6z M670.4,648.1
		c31.5-31.5,52.5-70.8,61.1-113.5c-6.7,9.9-13.2,13.6-17.2-8.6c-4.1-36.2-37.4-13.1-58.3-25.9c-22,14.8-71.5-28.8-63,20.4
		c13,22.2,70-29.7,41.6,17.3c-18.1,32.8-66.3,105.5-60.1,143.1c0.8,54.9-56.1,11.4-75.7-6.8c-13.2-36.5-4.5-100.2-38.9-118
		c-37.4-1.6-69.5-5-84-46.8c-8.7-29.9,9.3-74.4,41.3-81.3c46.9-29.5,63.7,34.5,107.7,35.7c13.7-14.3,50.9-18.8,54-34.9
		c-28.9-5.1,36.6-24.3-2.8-35.2C554.5,396,540.5,416,552,433c-42.1,9.8-43.5-61-84-38.6c-1,35.3-66.1,11.4-22.5,4.3
		c15-6.5-24.4-25.5-3.1-22.1c10.5-0.6,45.7-12.9,36.1-21.2c19.6-12.2,36.1,29.1,55.3-0.9c13.9-23.1-5.8-27.4-23.2-15.7
		c-9.8-11,17.3-34.6,41.2-44.9c8-3.4,15.6-5.3,21.4-4.7c12,13.9,34.3,16.3,35.4-1.7c-29.8-14.3-62.6-21.8-96.6-21.8
		c-48.8,0-95.2,15.5-133.7,44.2c10.3,4.7,16.2,10.6,6.2,18.1c-7.7,23-39.1,53.9-66.6,49.6c-14.3,24.6-23.7,51.8-27.7,80.3
		c23.1,7.6,28.4,22.7,23.4,27.8c-11.7,10.2-19,24.8-22.7,40.7c7.5,45.9,29.1,88.2,62.6,121.8c42.3,42.3,98.6,65.6,158.4,65.6
		C571.8,713.7,628.1,690.4,670.4,648.1z"/>
</g>
</svg>
