<?xml version="1.0" encoding="utf-8"?>
<!-- Generated by IcoMoon.io -->
<!DOCTYPE svg PUBLIC "-//W3C//DTD SVG 1.1//EN" "http://www.w3.org/Graphics/SVG/1.1/DTD/svg11.dtd">
<svg version="1.1" xmlns="http://www.w3.org/2000/svg" xmlns:xlink="http://www.w3.org/1999/xlink" width="45" height="45" viewBox="0 0 64 64">
<path fill="#ef5350" d="M43.775 19.175h-23.55c-0.175 0-0.3 0.137-0.288 0.313l1.813 34.038c0.012 0.163 0.137 0.362 0.3 0.425 0 0 2.988 1.25 9.913 1.25s10-1.25 10-1.25c0.163-0.063 0.288-0.25 0.3-0.425l1.813-34.038c0-0.175-0.125-0.313-0.3-0.313z"></path>
<path fill="#ef5350" d="M44.388 16.837h-24.775c-0.175 0-0.3 0.137-0.288 0.313l1.8 34.025c0.012 0.163 0.15 0.362 0.3 0.425 0 0 3.6 1.4 10.525 1.4s10.625-1.4 10.625-1.4c0.163-0.063 0.288-0.25 0.3-0.425l1.813-34.038c0-0.163-0.125-0.3-0.3-0.3z"></path>
<path fill="#ef5350" d="M17.863 12.563l2.5 31.075c0.012 0.163 0.15 0.362 0.3 0.425 0 0 3.2 1.55 11.3 1.55s11.387-1.563 11.387-1.563c0.163-0.063 0.288-0.25 0.3-0.425l2.5-31.075h-28.288z"></path>
<path fill="#ef5350" d="M17.137 12.863l0.613 6.238c0.012 0.163 0.137 0.363 0.3 0.425 0 0 4.225 1.25 13.912 1.25s14-1.25 14-1.25c0.163-0.063 0.288-0.25 0.3-0.425l0.612-6.238h-29.738z"></path>
<path fill="#ef5350" d="M16.488 11.775l0.188 1.975c0.012 0.162 0.137 0.363 0.3 0.425 0 0 6.225 0.938 14.975 0.938 8.763 0 15.075-0.95 15.075-0.95 0.163-0.063 0.288-0.25 0.3-0.425l0.188-1.975h-31.025z"></path>
<path fill="#ef5350" d="M15.787 10.65l0.113 1.188c0.012 0.162 0.15 0.363 0.3 0.425 0 0 6.988 1.1 15.75 1.1s15.838-1.1 15.838-1.1c0.163-0.063 0.288-0.25 0.3-0.425l0.112-1.188c0 0-3.763 0.75-16.25 0.75s-16.163-0.75-16.163-0.75z"></path>
<path fill="#ef5350" d="M15.45 9.938c0 0.625 7.412 1.125 16.55 1.125s16.55-0.5 16.55-1.125v0.875c-0.013 0.162-0.15 0.363-0.3 0.425 0 0-7.538 0.95-16.3 0.95s-16.212-0.938-16.212-0.938c-0.15-0.063-0.287-0.262-0.3-0.425v-0.887z"></path>
<path fill="#ef5350" d="M48.55 9.938c0 0.621-7.41 1.125-16.55 1.125s-16.55-0.504-16.55-1.125c0-0.621 7.41-1.125 16.55-1.125s16.55 0.504 16.55 1.125z"></path>
</svg>
