<?xml version="1.0" encoding="utf-8"?>
<!-- Generated by IcoMoon.io -->
<!DOCTYPE svg PUBLIC "-//W3C//DTD SVG 1.1//EN" "http://www.w3.org/Graphics/SVG/1.1/DTD/svg11.dtd">
<svg version="1.1" xmlns="http://www.w3.org/2000/svg" xmlns:xlink="http://www.w3.org/1999/xlink" width="45" height="45" viewBox="0 0 64 64">
<path fill="#ef5350" d="M49.45 51.925c-20.462-16.813-26.275-35.15-26.45-34.737 0.462-0.512 6.762 17.337 27.225 33.638z"></path>
<path fill="#ef5350" d="M47.725 32.888c0 0 4.513 3.862 4.587 8.712 0.1 6.063-2.55 10.038-2.55 10.038s-4.15-4.788-4.788-8.3c-0.9-4.925 2.75-10.45 2.75-10.45z"></path>
<path fill="#ef5350" d="M31.125 52.987c0 0 4.638 3.712 9.413 2.888 5.975-1.025 9.225-4.225 9.225-4.225s-5.313-3.35-8.875-3.313c-5.025 0.038-9.762 4.65-9.762 4.65z"></path>
<path fill="#ef5350" d="M40.95 23.45c0 0 3.7 4.5 2.95 9.188-0.925 5.862-4.175 9.263-4.175 9.263s-3.188-5.325-3.2-8.825c-0.025-4.913 4.425-9.625 4.425-9.625z"></path>
<path fill="#ef5350" d="M20.113 38.913c0 0 3.85 4.362 8.6 4.388 5.938 0.025 9.813-2.638 9.813-2.638s-4.75-4.013-8.2-4.587c-4.85-0.813-10.213 2.837-10.213 2.837z"></path>
<path fill="#ef5350" d="M34.425 12.137c0 0 2.8 4.975 1.275 9.375-1.9 5.5-5.6 8.225-5.6 8.225s-2.163-5.688-1.587-9.063c0.825-4.75 5.913-8.537 5.913-8.537z"></path>
<path fill="#ef5350" d="M11.688 23.512c0 0 2.963 4.875 7.55 5.7 5.725 1.025 9.912-0.875 9.912-0.875s-3.9-4.675-7.125-5.825c-4.55-1.6-10.338 1-10.338 1z"></path>
<path fill="#ef5350" d="M25.113 21.3c0 0 1.625-4.213-0.075-7.488-2.113-4.088-5.337-5.8-5.337-5.8s-1.050 4.7-0.212 7.287c1.188 3.612 5.625 6 5.625 6z"></path>
</svg>
