<?xml version="1.0" encoding="utf-8"?>
<!-- Generated by IcoMoon.io -->
<!DOCTYPE svg PUBLIC "-//W3C//DTD SVG 1.1//EN" "http://www.w3.org/Graphics/SVG/1.1/DTD/svg11.dtd">
<svg version="1.1" xmlns="http://www.w3.org/2000/svg" xmlns:xlink="http://www.w3.org/1999/xlink" width="45" height="45" viewBox="0 0 64 64">
<path fill="#f9b5b0" d="M28.413 8.738l-2.538 7.225h12.212l-2.538-7.225z"></path>
<path fill="#f9b5b0" d="M35.55 55.263l2.538-7.225h-12.212l2.538 7.225z"></path>
<path fill="#f9b5b0" d="M18.012 51.112l6.912-3.313-8.637-8.638-3.313 6.9z"></path>
<path fill="#f9b5b0" d="M46.038 13.15l-6.913 3.312 8.638 8.637 3.325-6.912z"></path>
<path fill="#f9b5b0" d="M55.337 28.438l-7.225-2.538v12.212l7.225-2.538z"></path>
<path fill="#f9b5b0" d="M8.662 35.612l7.225 2.538v-12.212l-7.225 2.538z"></path>
<path fill="#f9b5b0" d="M13.012 18.012l3.325 6.9 8.637-8.637-6.912-3.313z"></path>
<path fill="#f9b5b0" d="M51.087 45.95l-3.325-6.913-8.637 8.637 6.913 3.313z"></path>
<path fill="#f9b5b0" d="M31.975 14.813c-9.525 0-17.238 7.712-17.238 17.237s7.713 17.237 17.238 17.237 17.238-7.712 17.238-17.237-7.712-17.238-17.238-17.238zM31.975 38.487c-3.563 0-6.438-2.888-6.438-6.438 0-3.563 2.887-6.438 6.438-6.438 3.563 0 6.438 2.887 6.438 6.438 0.013 3.55-2.875 6.438-6.438 6.438z"></path>
</svg>
