<?xml version="1.0" encoding="utf-8"?>
<!-- Generator: Adobe Illustrator 18.0.0, SVG Export Plug-In . SVG Version: 6.00 Build 0)  -->
<!DOCTYPE svg PUBLIC "-//W3C//DTD SVG 1.0//EN" "http://www.w3.org/TR/2001/REC-SVG-20010904/DTD/svg10.dtd">
<svg version="1.0" id="Layer_1" xmlns="http://www.w3.org/2000/svg" xmlns:xlink="http://www.w3.org/1999/xlink" x="0px" y="0px"
	 viewBox="0 0 256 256" enable-background="new 0 0 256 256" xml:space="preserve">
<line fill="none" stroke="#EF5350" stroke-width="40.7191" stroke-linecap="square" stroke-miterlimit="10" x1="111.8" y1="102.7" x2="179" y2="169.9"/>
<path fill="#EF5350" d="M200.1,163.6c-15.2,0-27.6,12.4-27.6,27.6c0,15.2,12.4,27.6,27.6,27.6c15.2,0,27.6-12.4,27.6-27.6
	C227.7,175.9,215.3,163.6,200.1,163.6z M200.1,196.8c-3.1,0-5.6-2.5-5.6-5.6s2.5-5.6,5.6-5.6s5.6,2.5,5.6,5.6
	S203.2,196.8,200.1,196.8z"/>
<path fill="#EF5350" d="M113.4,40.2l-9.4-9.4C93,19.8,76.5,17.3,61.4,22.8l21.9,21.9c7.3,7.3,6.5,20.1-1.8,28.4l0,0
	c-8.4,8.4-21.1,9.2-28.4,1.8L31.2,53.1c-5.5,15.1-3,31.6,7.9,42.5l9.4,9.4c15.7,15.7,43,14,61-3.9l0,0
	C127.4,83.2,129.2,55.9,113.4,40.2z"/>
</svg>
