<?xml version="1.0" encoding="utf-8"?>
<!-- Generator: Adobe Illustrator 18.0.0, SVG Export Plug-In . SVG Version: 6.00 Build 0)  -->
<!DOCTYPE svg PUBLIC "-//W3C//DTD SVG 1.0//EN" "http://www.w3.org/TR/2001/REC-SVG-20010904/DTD/svg10.dtd">
<svg version="1.0" id="Layer_1" xmlns="http://www.w3.org/2000/svg" xmlns:xlink="http://www.w3.org/1999/xlink" x="0px" y="0px"
	 viewBox="0 0 256 256" enable-background="new 0 0 256 256" xml:space="preserve">
<g>
	<path fill="#EF5350" d="M104,3.5c0,0,32.9,51.5-5.4,90.6C74.7,113.5,68,126.8,63.2,140c-6.4,17.7-7.9,36.9-3.8,55.3
		c1.8,8,4.5,16.4,8.6,24.6c10.3,21,31.8,34.3,55.2,34.3h24.3c13.3,0,26-6.1,34.2-16.6c11.5-14.8,26.1-38.3,28.8-65.2
		C218.1,97.5,128.7,15.7,104,3.5z M178.5,137.5c0,0.4-0.4,0.9-0.8,1.1c0,0-0.1,0-0.3,0l-0.2,1.6c0,0.4-0.4,0.9-0.8,1.1
		c0,0-0.3,0-0.9,0.1l-0.4,3.8c0,0.4-0.4,0.9-0.8,1.1c0,0-0.3,0-0.8,0.1l-1.2,12.7c0,0.4-0.4,0.9-0.8,1.1c0,0-0.3,0.1-1,0.3l-5,62.5
		c0,0.4-0.4,0.9-0.8,1.1c0,0-0.1,0-0.2,0.1l-1,18.4c0,0.4-0.4,0.9-0.8,1.1c0,0-0.2,0.1-0.6,0.2l-0.3,4.8c0,0.4-0.4,0.9-0.8,1.1
		c0,0-8,3.3-26.1,3.3c-18,0-25.8-3.3-25.8-3.3c-0.4-0.2-0.8-0.7-0.8-1.1l-0.3-4.8c-0.4-0.1-0.6-0.2-0.6-0.2
		c-0.4-0.2-0.8-0.7-0.8-1.1l-1-18.4c-0.1-0.1-0.2-0.1-0.2-0.1c-0.4-0.2-0.8-0.7-0.8-1.1l-5-62.5c-0.7-0.2-1-0.3-1-0.3
		c-0.4-0.2-0.8-0.7-0.8-1.1l-1.2-12.7c-0.5-0.1-0.8-0.1-0.8-0.1c-0.4-0.2-0.8-0.7-0.8-1.1l-0.4-3.7c-0.6-0.1-0.9-0.1-0.9-0.1
		c-0.4-0.2-0.8-0.7-0.8-1.1l-0.1-1.6c-0.2,0-0.3,0-0.3,0c-0.4-0.2-0.8-0.7-0.8-1.1v-2.3c0-1.6,19.3-2.9,43.1-2.9
		c23.8,0,43.1,1.3,43.1,2.9V137.5z"/>
</g>
</svg>
