<?xml version="1.0" encoding="utf-8"?>
<!-- Generator: Adobe Illustrator 18.0.0, SVG Export Plug-In . SVG Version: 6.00 Build 0)  -->
<!DOCTYPE svg PUBLIC "-//W3C//DTD SVG 1.0//EN" "http://www.w3.org/TR/2001/REC-SVG-20010904/DTD/svg10.dtd">
<svg version="1.0" id="Layer_1" xmlns="http://www.w3.org/2000/svg" xmlns:xlink="http://www.w3.org/1999/xlink" x="0px" y="0px"
	 viewBox="0 0 512 512" enable-background="new 0 0 512 512" xml:space="preserve" width="50" height="50">
<circle fill="#EF5350" cx="256" cy="191.4" r="191.4"/>
<polygon fill="#EF5350" points="258.6,511.6 140.4,312.7 371.6,309.8 "/>
<circle fill="#FFFFFF" cx="256" cy="191.4" r="163.5"/>
<g>
	<g>
		<path fill="#EF5350" d="M315.2,136.2H196.8c-0.8,0-1.5,0.7-1.5,1.5l9.1,171.2c0,0.8,0.7,1.8,1.5,2.1c0,0,15,6.3,49.9,6.3
			c34.8,0,50.3-6.3,50.3-6.3c0.8-0.3,1.5-1.3,1.5-2.1l9.1-171.2C316.8,136.9,316.1,136.2,315.2,136.2z"/>
		<path fill="#EF5350" d="M318.3,124.4H193.7c-0.8,0-1.5,0.7-1.5,1.5l9.1,171.2c0,0.8,0.7,1.8,1.5,2.1c0,0,18.1,7.1,53,7.1
			c34.8,0,53.4-7.1,53.4-7.1c0.8-0.3,1.5-1.3,1.5-2.1l9.1-171.2C319.8,125.1,319.2,124.4,318.3,124.4z"/>
		<path fill="#EF5350" d="M184.9,102.9l12.5,156.3c0,0.8,0.7,1.8,1.5,2.1c0,0,16.1,7.8,56.8,7.8c40.7,0,57.3-7.8,57.3-7.8
			c0.8-0.3,1.5-1.3,1.5-2.1l12.5-156.3H184.9z"/>
		<path fill="#EF5350" d="M181.3,104.5l3.1,31.4c0,0.8,0.7,1.8,1.5,2.1c0,0,21.2,6.3,69.9,6.3c48.7,0,70.4-6.3,70.4-6.3
			c0.8-0.3,1.5-1.3,1.5-2.1l3.1-31.4H181.3z"/>
		<path fill="#EF5350" d="M178,99l1,9.9c0,0.8,0.7,1.8,1.5,2.1c0,0,31.3,4.7,75.3,4.7c44.1,0,75.8-4.8,75.8-4.8
			c0.8-0.3,1.5-1.3,1.5-2.1l1-9.9H178z"/>
		<path fill="#EF5350" d="M174.5,93.3l0.6,6c0,0.8,0.7,1.8,1.5,2.1c0,0,35.1,5.5,79.2,5.5c44.1,0,79.7-5.5,79.7-5.5
			c0.8-0.3,1.5-1.3,1.5-2.1l0.6-6c0,0-19,3.8-81.8,3.8C193,97.1,174.5,93.3,174.5,93.3z"/>
		<g opacity="0.4">
			<g>

					<linearGradient id="SVGID_1_" gradientUnits="userSpaceOnUse" x1="167.0407" y1="-3834.293" x2="167.0407" y2="-3834.293" gradientTransform="matrix(1 0 0 1 75.3877 3978)">
					<stop  offset="0" style="stop-color:#FFFFFF;stop-opacity:0"/>
					<stop  offset="0.5" style="stop-color:#FFFFFF"/>
					<stop  offset="1" style="stop-color:#FFFFFF;stop-opacity:0"/>
				</linearGradient>
				<line fill="url(#SVGID_1_)" x1="242.4" y1="144.1" x2="242.4" y2="143.3"/>

					<linearGradient id="SVGID_2_" gradientUnits="userSpaceOnUse" x1="110.4382" y1="-3840.3862" x2="110.6999" y2="-3840.3862" gradientTransform="matrix(1 0 0 1 75.3877 3978)">
					<stop  offset="0" style="stop-color:#FFFFFF;stop-opacity:0"/>
					<stop  offset="0.5" style="stop-color:#FFFFFF"/>
					<stop  offset="1" style="stop-color:#FFFFFF;stop-opacity:0"/>
				</linearGradient>
				<line fill="url(#SVGID_2_)" x1="186.1" y1="137.2" x2="185.8" y2="138"/>

					<linearGradient id="SVGID_3_" gradientUnits="userSpaceOnUse" x1="250.5237" y1="-3840.4014" x2="250.7809" y2="-3840.4014" gradientTransform="matrix(1 0 0 1 75.3877 3978)">
					<stop  offset="0" style="stop-color:#FFFFFF;stop-opacity:0"/>
					<stop  offset="0.5" style="stop-color:#FFFFFF"/>
					<stop  offset="1" style="stop-color:#FFFFFF;stop-opacity:0"/>
				</linearGradient>
				<line fill="url(#SVGID_3_)" x1="326.2" y1="138" x2="325.9" y2="137.2"/>

					<linearGradient id="SVGID_4_" gradientUnits="userSpaceOnUse" x1="208.4447" y1="-3834.8984" x2="208.4447" y2="-3834.8984" gradientTransform="matrix(1 0 0 1 75.3877 3978)">
					<stop  offset="0" style="stop-color:#FFFFFF;stop-opacity:0"/>
					<stop  offset="0.5" style="stop-color:#FFFFFF"/>
					<stop  offset="1" style="stop-color:#FFFFFF;stop-opacity:0"/>
				</linearGradient>
				<line fill="url(#SVGID_4_)" x1="283.8" y1="142.7" x2="283.8" y2="143.5"/>
			</g>
		</g>
		<path fill="#EF5350" d="M172.7,89.7c0,3.1,37.3,5.7,83.3,5.7c46,0,83.3-2.5,83.3-5.7v4.4c0,0.8-0.7,1.8-1.5,2.1
			c0,0-37.9,4.8-82,4.8c-44.1,0-81.5-4.7-81.5-4.7c-0.8-0.3-1.5-1.3-1.5-2.1V89.7z"/>
		<ellipse fill="#EF5350" cx="256" cy="89.7" rx="83.3" ry="5.7"/>
	</g>
</g>
</svg>
