<?xml version="1.0" encoding="utf-8"?>
<!-- Generator: Adobe Illustrator 18.0.0, SVG Export Plug-In . SVG Version: 6.00 Build 0)  -->
<!DOCTYPE svg PUBLIC "-//W3C//DTD SVG 1.0//EN" "http://www.w3.org/TR/2001/REC-SVG-20010904/DTD/svg10.dtd">
<svg version="1.0" id="Layer_1" xmlns="http://www.w3.org/2000/svg" xmlns:xlink="http://www.w3.org/1999/xlink" x="0px" y="0px"
	 viewBox="0 0 512 512" enable-background="new 0 0 512 512" xml:space="preserve" height="70" widht="70">
<g>

		<ellipse fill="none" stroke="#EF5350" stroke-width="10" stroke-miterlimit="10" stroke-dasharray="40.362,10.0905" cx="256" cy="404.5" rx="246.4" ry="87.9"/>
</g>
<g>
	<line fill="#EF5350" stroke="#EF5350" stroke-width="10.913" stroke-miterlimit="10" x1="129.8" y1="400.7" x2="129.8" y2="48.3"/>
	<circle fill="#EF5350" cx="129.8" cy="48.3" r="13.7"/>
	<g>
		<g>
			<path fill="#EF5350" d="M439,263c-102.5-43.9-201.7,46.7-304.2,2.7c-1.5-0.7-2.7-2.6-2.7-4.1c0-62.6,0-125.1,0-187.7
				c0-1.5,1.2-2.1,2.7-1.3C237.3,116.6,336.5,26,439,70c1.5,0.7,2.7,2.6,2.7,4.1c0,62.6,0,125.1,0,187.7
				C441.7,263.2,440.5,263.8,439,263z"/>
			<g>
				<g>
					<g>
						<path fill="#37B34A" d="M298.5,255.1c-8.7-7.1-20.9-8.6-31.7-7.5c-27.4,0.2-50.2-22.6-56.2-48.3c-7.4-28.1,3.1-59.7,23-80.2
							c10-9.8,20.2-18.7,32.6-25.3c-11.9,7.4-22.1,15.9-32,25.9c-20.4,21.7-27.2,50.3-21.7,79c6,24.9,28.4,46.5,55,46.1
							c5-0.5,9.5-0.4,13.4,0c14.8,1.5,20.4,7,20.4,7C300.2,253.1,299.6,253.7,298.5,255.1z"/>
					</g>
					<g>
						<path fill="#37B34A" d="M275.3,261.3c7.9-10.9,19.5-19.2,31.7-24.5c26-13.2,49.6-39.2,56.2-68c4.7-26.5,0.6-57.8-23-74.8
							c-10.5-6.3-20.2-11.2-32.6-11.4c12.3,1.2,21.6,5.6,32,12.2c22.9,17,26.6,47.7,21.7,73.7c-6.6,27.9-29.6,53.2-55,65.9
							c-5,2.1-9.5,4.5-13.4,7c-14.8,9.4-20.4,18-20.4,18C273.6,260.2,274.1,260.6,275.3,261.3z"/>
					</g>
					<g>
						<g>
							<path fill="#37B34A" d="M260.3,230c0,0,6.1,0.7,8.1,5.2c2.5,5.6,1.4,11.2,1.4,11.2s-6.1-1.7-8.2-4.6
								C258.8,237.7,260.3,230,260.3,230z"/>
							<path fill="#37B34A" d="M249.5,260.1c0,0,6.2,0.6,10.8-3.4c5.6-4.9,7.7-10.4,7.7-10.4s-6.8,0.7-10.4,3
								C252.5,252.7,249.5,260.1,249.5,260.1z"/>
						</g>
						<g>
							<path fill="#37B34A" d="M250.7,226.8c0,0,5.6,1.9,6.7,6.8c1.4,6.2-0.5,11.5-0.5,11.5s-5.4-3-6.8-6.3
								C248.1,234.2,250.7,226.8,250.7,226.8z"/>
							<path fill="#37B34A" d="M235.5,254.6c0,0,5.8,2,10.7-1c6.1-3.7,9-8.8,9-8.8s-6.5-0.8-10.3,0.8
								C239.6,247.9,235.5,254.6,235.5,254.6z"/>
						</g>
						<g>
							<path fill="#37B34A" d="M242,221.6c0,0,4.9,3,5.2,8.2c0.3,6.5-2.4,11.4-2.4,11.4s-4.6-4.2-5.4-7.8
								C238.3,228.3,242,221.6,242,221.6z"/>
							<path fill="#37B34A" d="M223,245.9c0,0,5.1,3.2,10.2,1.4c6.4-2.3,10-6.8,10-6.8s-6-2.1-9.8-1.4
								C228,240.2,223,245.9,223,245.9z"/>
						</g>
						<g>
							<path fill="#37B34A" d="M234.6,214.4c0,0,4.1,4,3.5,9.2c-0.8,6.5-4.2,10.8-4.2,10.8s-3.6-5.1-3.7-8.8
								C229.9,220.3,234.6,214.4,234.6,214.4z"/>
							<path fill="#37B34A" d="M212.6,234.4c0,0,4.3,4.3,9.4,3.5c6.4-0.9,10.5-4.6,10.5-4.6s-5.2-3.4-9-3.4
								C218.2,229.9,212.6,234.4,212.6,234.4z"/>
						</g>
						<g>
							<path fill="#37B34A" d="M228.6,205.7c0,0,3.2,4.8,1.7,9.8c-1.9,6.3-5.8,9.9-5.8,9.9s-2.5-5.8-2-9.5
								C223.3,210.6,228.6,205.7,228.6,205.7z"/>
							<path fill="#37B34A" d="M204.5,220.9c0,0,3.3,5.1,8.3,5.4c6.2,0.5,10.7-2.3,10.7-2.3s-4.3-4.4-7.9-5.2
								C210.6,217.6,204.5,220.9,204.5,220.9z"/>
						</g>
						<g>
							<path fill="#37B34A" d="M224.6,195.7c0,0,2.2,5.4-0.1,10c-2.8,5.8-7.1,8.6-7.1,8.6s-1.4-6.1-0.3-9.7
								C218.6,199.6,224.6,195.7,224.6,195.7z"/>
							<path fill="#37B34A" d="M199,205.9c0,0,2.3,5.6,7,7c5.8,1.7,10.5-0.1,10.5-0.1s-3.4-5.2-6.6-6.7
								C205.5,204,199,205.9,199,205.9z"/>
						</g>
						<g>
							<path fill="#37B34A" d="M222.3,185c0,0,1.1,5.7-1.8,9.8c-3.7,5.2-8.2,7-8.2,7s-0.3-6.3,1.4-9.5
								C216,187.7,222.3,185,222.3,185z"/>
							<path fill="#37B34A" d="M196.2,190.2c0,0,1.3,5.8,5.6,8c5.3,2.8,10,1.9,10,1.9s-2.3-5.7-5.1-7.7
								C202.8,189.6,196.2,190.2,196.2,190.2z"/>
						</g>
						<g>
							<path fill="#37B34A" d="M222,173.7c0,0,0.1,5.8-3.4,9.4c-4.4,4.5-9,5.4-9,5.4s0.8-6.2,3-9.1C215.6,175.3,222,173.7,222,173.7
								z"/>
							<path fill="#37B34A" d="M196.2,174.4c0,0,0.3,5.8,4,8.7c4.6,3.6,9.3,3.7,9.3,3.7s-1.2-6-3.6-8.5
								C202.6,174.8,196.2,174.4,196.2,174.4z"/>
						</g>
						<g>
							<path fill="#37B34A" d="M223.6,161.9c0,0-0.9,5.7-4.8,8.7c-4.9,3.6-9.5,3.7-9.5,3.7s1.8-5.9,4.4-8.4
								C217.3,162.5,223.6,161.9,223.6,161.9z"/>
							<path fill="#37B34A" d="M198.8,158.4c0,0-0.7,5.7,2.4,9.1c3.8,4.3,8.3,5.1,8.3,5.1s-0.2-6-2-8.8
								C205,159.9,198.8,158.4,198.8,158.4z"/>
						</g>
						<g>
							<path fill="#37B34A" d="M227.2,150.2c0,0-1.8,5.5-6,7.8c-5.2,2.8-9.6,2.1-9.6,2.1s2.7-5.5,5.6-7.5
								C221.2,149.7,227.2,150.2,227.2,150.2z"/>
							<path fill="#37B34A" d="M204.2,143c0,0-1.6,5.4,0.7,9.2c3,4.7,7.1,6.3,7.1,6.3s0.9-5.9-0.4-8.9
								C209.9,145.3,204.2,143,204.2,143z"/>
						</g>
						<g>
							<path fill="#37B34A" d="M232.8,138.9c0,0-2.6,5.2-7,6.8c-5.4,1.9-9.5,0.7-9.5,0.7s3.5-5,6.6-6.6
								C227.2,137.5,232.8,138.9,232.8,138.9z"/>
							<path fill="#37B34A" d="M212.2,128.6c0,0-2.5,5-0.9,9.1c2,5,5.7,7.2,5.7,7.2s1.9-5.7,1.2-8.8
								C217.2,131.5,212.2,128.6,212.2,128.6z"/>
						</g>
						<g>
							<path fill="#37B34A" d="M240.2,128.3c0,0-3.3,4.8-7.7,5.7c-5.4,1.1-9.1-0.7-9.1-0.7s4.2-4.4,7.3-5.5
								C235.1,126.1,240.2,128.3,240.2,128.3z"/>
							<path fill="#37B34A" d="M222.4,115.2c0,0-3.2,4.6-2.4,8.8c1.1,5.2,4.2,7.8,4.2,7.8s2.7-5.4,2.6-8.6
								C226.7,118.8,222.4,115.2,222.4,115.2z"/>
						</g>
						<g>
							<path fill="#37B34A" d="M248.9,118.8c0,0-3.9,4.3-8.1,4.5c-5.3,0.3-8.4-2.1-8.4-2.1s4.7-3.8,7.9-4.5
								C244.6,115.8,248.9,118.8,248.9,118.8z"/>
							<path fill="#37B34A" d="M234.6,103.1c0,0-3.8,4.2-3.7,8.4c0.1,5.3,2.6,8.3,2.6,8.3s3.5-5,3.9-8.2
								C238,107.3,234.6,103.1,234.6,103.1z"/>
						</g>
						<g>
							<path fill="#37B34A" d="M258.6,110.4c0,0-4.3,3.7-8.2,3.3c-4.9-0.5-7.4-3.3-7.4-3.3s5-3.1,8-3.3
								C255.2,106.8,258.6,110.4,258.6,110.4z"/>
							<path fill="#37B34A" d="M248.1,92.6c0,0-4.2,3.7-4.9,7.9c-0.8,5.3,1,8.7,1,8.7s4.1-4.5,5-7.6
								C250.5,97.3,248.1,92.6,248.1,92.6z"/>
						</g>
						<g>
							<path fill="#37B34A" d="M269,103.6c0,0-4.5,3-8.1,1.9c-4.4-1.3-6.3-4.5-6.3-4.5s5.1-2.4,7.9-2.1
								C266.4,99.4,269,103.6,269,103.6z"/>
							<path fill="#37B34A" d="M262.2,84c0,0-4.5,3.1-5.8,7.2c-1.6,5.2-0.5,8.9-0.5,8.9s4.5-3.9,5.8-6.9C263.7,89,262.2,84,262.2,84
								z"/>
						</g>
						<path fill="#37B34A" d="M262.4,96c0,0,3.4,1.1,6.3-0.7c3.7-2.3,5.5-5.4,5.5-5.4s-3.8-0.5-6.1,0.5C265,91.8,262.4,96,262.4,96z
							"/>
						<g>
							<path fill="#37B34A" d="M313.5,216.1c0,0-6.1,3.7-8.1,9.2c-2.5,6.9-1.4,11.9-1.4,11.9s6.1-4.8,8.2-8.8
								C314.9,223.1,313.5,216.1,313.5,216.1z"/>
							<path fill="#37B34A" d="M324.3,241.3c0,0-6.2,3.3-10.8,1.6c-5.6-2.2-7.7-6.5-7.7-6.5s6.8-2.8,10.4-2.1
								C321.3,235.1,324.3,241.3,324.3,241.3z"/>
						</g>
						<g>
							<path fill="#37B34A" d="M323,208.5c0,0-5.6,4.4-6.7,9.9c-1.4,6.8,0.5,11.3,0.5,11.3s5.4-5.5,6.8-9.4
								C325.7,214.7,323,208.5,323,208.5z"/>
							<path fill="#37B34A" d="M338.3,230.3c0,0-5.8,4-10.7,3.1c-6.1-1.2-9-4.8-9-4.8s6.5-3.7,10.3-3.6
								C334.2,225,338.3,230.3,338.3,230.3z"/>
						</g>
						<g>
							<path fill="#37B34A" d="M331.7,199.7c0,0-4.9,5-5.2,10.3c-0.3,6.6,2.4,10.4,2.4,10.4s4.6-5.9,5.4-9.9
								C335.5,205,331.7,199.7,331.7,199.7z"/>
							<path fill="#37B34A" d="M350.8,217.9c0,0-5.1,4.5-10.2,4.3c-6.4-0.2-10-3.2-10-3.2s6-4.4,9.8-4.9
								C345.8,213.4,350.8,217.9,350.8,217.9z"/>
						</g>
						<g>
							<path fill="#37B34A" d="M339.2,189.8c0,0-4.1,5.5-3.5,10.4c0.8,6.2,4.2,9.4,4.2,9.4s3.6-6.2,3.7-10
								C343.8,194.3,339.2,189.8,339.2,189.8z"/>
							<path fill="#37B34A" d="M361.2,204.4c0,0-4.3,4.9-9.4,5.4c-6.4,0.6-10.5-1.7-10.5-1.7s5.2-5,9-6
								C355.5,200.7,361.2,204.4,361.2,204.4z"/>
						</g>
						<g>
							<path fill="#37B34A" d="M345.1,179.2c0,0-3.2,5.8-1.7,10.3c1.9,5.7,5.8,8.2,5.8,8.2s2.5-6.4,2-10
								C350.5,182.7,345.1,179.2,345.1,179.2z"/>
							<path fill="#37B34A" d="M369.3,189.9c0,0-3.3,5.3-8.3,6.4c-6.2,1.4-10.7-0.2-10.7-0.2s4.3-5.5,7.9-6.9
								C363.1,187.2,369.3,189.9,369.3,189.9z"/>
						</g>
						<g>
							<path fill="#37B34A" d="M349.2,168.1c0,0-2.2,5.9,0.1,10c2.8,5.1,7.1,6.9,7.1,6.9s1.4-6.4,0.3-9.8
								C355.1,170.6,349.2,168.1,349.2,168.1z"/>
							<path fill="#37B34A" d="M374.8,174.7c0,0-2.4,5.5-7,7.3c-5.8,2.2-10.5,1.4-10.5,1.4s3.4-5.8,6.6-7.7
								C368.3,173,374.8,174.7,374.8,174.7z"/>
						</g>
						<g>
							<path fill="#37B34A" d="M351.5,156.8c0,0-1.1,5.9,1.8,9.4c3.7,4.4,8.2,5.5,8.2,5.5s0.3-6.3-1.4-9.3
								C357.7,158.2,351.5,156.8,351.5,156.8z"/>
							<path fill="#37B34A" d="M377.6,159c0,0-1.3,5.7-5.6,8.1c-5.3,3-10,2.9-10,2.9s2.3-6,5.1-8.4C371,158.4,377.6,159,377.6,159z"
								/>
						</g>
						<g>
							<path fill="#37B34A" d="M351.8,145.5c0,0-0.1,5.8,3.4,8.6c4.3,3.5,9,3.9,9,3.9s-0.8-6.1-3-8.7
								C358.2,145.7,351.8,145.5,351.8,145.5z"/>
							<path fill="#37B34A" d="M377.6,143.2c0,0-0.3,5.7-4,8.7c-4.6,3.7-9.3,4.4-9.3,4.4s1.2-6.2,3.6-8.8
								C371.2,143.6,377.6,143.2,377.6,143.2z"/>
						</g>
						<g>
							<path fill="#37B34A" d="M350.2,134.1c0,0,0.9,5.5,4.8,7.5c4.9,2.6,9.5,2.2,9.5,2.2s-1.8-5.7-4.4-7.7
								C356.5,133.2,350.2,134.1,350.2,134.1z"/>
							<path fill="#37B34A" d="M374.9,127.2c0,0,0.7,5.6-2.4,9.1c-3.8,4.4-8.3,5.8-8.3,5.8s0.2-6.1,2-9.1
								C368.8,128.9,374.9,127.2,374.9,127.2z"/>
						</g>
						<g>
							<path fill="#37B34A" d="M346.5,123.3c0,0,1.8,5,6,6.2c5.2,1.6,9.6,0.3,9.6,0.3s-2.7-5.1-5.6-6.6
								C352.6,121.2,346.5,123.3,346.5,123.3z"/>
							<path fill="#37B34A" d="M369.6,112c0,0,1.6,5.3-0.7,9.2c-3,5-7.1,7.1-7.1,7.1s-0.9-5.8,0.4-9
								C363.9,114.8,369.6,112,369.6,112z"/>
						</g>
						<g>
							<path fill="#37B34A" d="M340.9,113.7c0,0,2.6,4.3,7,4.7c5.4,0.5,9.5-1.5,9.5-1.5s-3.5-4.3-6.6-5.1
								C346.6,110.6,340.9,113.7,340.9,113.7z"/>
							<path fill="#37B34A" d="M361.6,98.4c0,0,2.5,4.7,0.9,8.9c-2,5.3-5.7,8.1-5.7,8.1s-1.9-5.3-1.2-8.6
								C356.6,102.3,361.6,98.4,361.6,98.4z"/>
						</g>
						<g>
							<path fill="#37B34A" d="M333.6,105.7c0,0,3.4,3.5,7.7,3c5.4-0.6,9.1-3.3,9.1-3.3s-4.2-3.3-7.3-3.5
								C338.6,101.6,333.6,105.7,333.6,105.7z"/>
							<path fill="#37B34A" d="M351.3,87.1c0,0,3.2,3.9,2.4,8.3c-1.1,5.5-4.2,8.8-4.2,8.8s-2.7-4.6-2.6-7.9
								C347.1,91.8,351.3,87.1,351.3,87.1z"/>
						</g>
						<g>
							<path fill="#37B34A" d="M324.9,99.6c0,0,3.9,2.6,8.1,1.2c5.3-1.7,8.4-5,8.4-5s-4.7-2.2-7.9-1.7
								C329.1,94.8,324.9,99.6,324.9,99.6z"/>
							<path fill="#37B34A" d="M339.2,78.5c0,0,3.8,3,3.7,7.2c-0.1,5.4-2.6,9.2-2.6,9.2s-3.5-3.8-3.9-6.8
								C335.8,83.9,339.2,78.5,339.2,78.5z"/>
						</g>
						<g>
							<path fill="#37B34A" d="M315.1,95.7c0,0,4.3,1.6,8.2-0.5c4.9-2.6,7.4-6.4,7.4-6.4s-5-1.1-8,0
								C318.6,90.4,315.1,95.7,315.1,95.7z"/>
							<path fill="#37B34A" d="M325.7,73.2c0,0,4.2,1.9,4.9,5.9c0.8,5-1,9.1-1,9.1s-4-2.8-5-5.5C323.2,78.9,325.7,73.2,325.7,73.2z"
								/>
						</g>
						<g>
							<path fill="#37B34A" d="M304.8,94.1c0,0,4.5,0.6,8.1-2.1c4.4-3.4,6.3-7.4,6.3-7.4s-5.1,0-7.9,1.7
								C307.3,88.5,304.8,94.1,304.8,94.1z"/>
							<path fill="#37B34A" d="M311.5,71.1c0,0,4.5,0.9,5.8,4.5c1.6,4.5,0.5,8.6,0.5,8.6s-4.5-1.7-5.8-4.1
								C310,76.8,311.5,71.1,311.5,71.1z"/>
						</g>
						<path fill="#37B34A" d="M311.3,83.1c0,0-3.4,2.8-6.3,2.5c-3.7-0.4-5.5-2.5-5.5-2.5s3.8-2.5,6.1-2.7
							C308.8,80.2,311.3,83.1,311.3,83.1z"/>
					</g>
				</g>
				<g>
					<g>
						<path fill="#FFFFFF" d="M311.9,130.3c-16.7,4.3-33.3,8.9-50,13.1c-0.4,0.1-0.6,0.5-0.6,0.8c1.3,24.7,2.6,49.4,3.9,74.2
							c0,0.4,0.3,0.7,0.6,0.8c0,0,6.4,1.2,21-2.8c14.7-4,21.2-8.4,21.2-8.4c0.3-0.2,0.6-0.7,0.6-1.1c1.3-25.4,2.6-50.7,3.9-76.1
							C312.5,130.4,312.3,130.2,311.9,130.3z"/>
						<path fill="#FFFFFF" d="M313.2,124.8c-17.6,4.5-35.1,9.3-52.7,13.8c-0.4,0.1-0.6,0.5-0.6,0.8c1.3,24.7,2.6,49.4,3.9,74.2
							c0,0.4,0.3,0.7,0.6,0.8c0,0,7.7,1.2,22.3-2.8c14.7-4,22.5-9,22.5-9c0.3-0.2,0.6-0.7,0.6-1.1c1.3-25.4,2.6-50.7,3.9-76.1
							C313.8,124.9,313.6,124.7,313.2,124.8z"/>
						<path fill="#FFFFFF" d="M256.8,130c1.8,22.4,3.6,44.9,5.3,67.3c0,0.4,0.3,0.7,0.6,0.8c0,0,6.8,1.8,24-2.9
							c17.1-4.6,24.2-9.8,24.2-9.8c0.3-0.2,0.6-0.7,0.6-1.1c1.8-23.3,3.6-46.6,5.3-69.9C296.8,119.4,276.9,125,256.8,130z"/>
						<path fill="#FFFFFF" d="M255.3,131c0.5,5.4,0.8,8.1,1.3,13.5c0,0.4,0.3,0.7,0.6,0.8c10.1-0.1,20.1-2.3,29.6-4.9
							c9.9-2.7,20.3-5.9,29.8-10.5c0.3-0.2,0.6-0.7,0.6-1.1c0.5-5.6,0.8-8.4,1.3-14.1C297.3,119.9,276.4,125.9,255.3,131z"/>
						<path fill="#FFFFFF" d="M253.8,129c0.2,1.7,0.2,2.6,0.4,4.3c0,0.4,0.3,0.7,0.6,0.8c10.8-1,21.5-3.3,31.9-6.1
							c10.8-3,21.5-6.4,32.1-10.3c0.3-0.2,0.6-0.7,0.6-1.1c0.2-1.8,0.2-2.7,0.4-4.4C297.8,117.4,275.9,123.6,253.8,129z"/>
						<path fill="#FFFFFF" d="M252.4,126.8c0.1,1,0.1,1.5,0.2,2.6c0,0.4,0.3,0.7,0.6,0.8c11.3-0.9,22.6-3.2,33.5-6.2
							c11.4-3.1,22.6-6.9,33.7-11c0.3-0.2,0.6-0.7,0.6-1.1c0.1-1.1,0.1-1.6,0.2-2.7c-11.3,4.2-23.1,7.4-34.6,10.5
							C275.6,122.7,264.1,125.9,252.4,126.8z"/>
						<g opacity="0.4">
							<g>
								<path fill="#FFFFFF" d="M281.2,141.8c0-0.1,0-0.2,0-0.3"/>
								<path fill="#FFFFFF" d="M257.3,144.9c0,0.1-0.1,0.2-0.1,0.3"/>
								<path fill="#FFFFFF" d="M316.5,129.9c0-0.1-0.1-0.2-0.1-0.3"/>
								<path fill="#FFFFFF" d="M298.6,136.5c0,0.1,0,0.2,0,0.3"/>
							</g>
						</g>
						<path fill="#FFFFFF" d="M251.6,125.4c11.6,1,24.4-3.5,35.3-6.5c11.5-3.1,24.6-5.7,35.3-11.4c0,0.8,0,1.2,0,1.9
							c0,0.4-0.3,0.9-0.6,1.1c-11.5,3.9-23,7.7-34.7,10.9c-11.3,3.1-22.9,5.5-34.5,6.7c-0.3-0.1-0.6-0.4-0.6-0.8
							C251.6,126.5,251.6,126.2,251.6,125.4z"/>
						<path fill="#FFFFFF" d="M322.2,107.5c-0.1-0.5-24.4,3.5-35.3,6.5c-11.5,3.1-35.3,11.4-35.3,11.4c0.1,0.5,24.4-3.5,35.3-6.5
							C298.4,115.8,322.2,107.5,322.2,107.5z"/>
					</g>
				</g>
			</g>
		</g>
	</g>
</g>
</svg>
