<?xml version="1.0" encoding="utf-8"?>
<!-- Generator: Adobe Illustrator 18.0.0, SVG Export Plug-In . SVG Version: 6.00 Build 0)  -->
<!DOCTYPE svg PUBLIC "-//W3C//DTD SVG 1.0//EN" "http://www.w3.org/TR/2001/REC-SVG-20010904/DTD/svg10.dtd">
<svg version="1.0" id="Layer_1" xmlns="http://www.w3.org/2000/svg" xmlns:xlink="http://www.w3.org/1999/xlink" x="0px" y="0px"
	 viewBox="0 0 512 512" enable-background="new 0 0 512 512" xml:space="preserve" width="140" height="140">
<g>

		<line fill="#EF5350" stroke="#EF5350" stroke-width="8.6908" stroke-miterlimit="10" x1="256.6" y1="509.7" x2="256.6" y2="229.1"/>
	<circle fill="#EF5350" cx="256.6" cy="229.1" r="10.9"/>
	<g>
		<g>
			<path fill="#EF5350" d="M502.8,400.1c-82-34-160.3,36.2-242.3,2.2c-1.2-0.6-2.1-2-2.1-3.2c0-49.8,0-99.7,0-149.5
				c0-1.2,1-1.6,2.1-1.1c82,34,160.3-36.2,242.3-2.2c1.2,0.6,2.1,2,2.1,3.2c0,49.8,0,99.7,0,149.5C505,400.2,504,400.7,502.8,400.1z
				"/>
			<g>
				<g>
					<g>
						<path fill="#37B34A" d="M391,393.7c0,0-7.5-7.4-25.3-6c-21.8,0-40-17.9-44.7-38.4c-5.9-22.4,2.5-47.4,18.3-63.9
							c7.5-8,16.2-15,26-20.2c-9.4,5.7-18,12.4-25.5,20.6c-15.3,16.3-23.3,41-17.3,62.9c4.8,19.9,22.6,37,43.8,36.7
							c4-0.4,7.6-0.3,10.7,0c11.8,1.2,16.3,5.6,16.3,5.6C392.3,392.2,391.8,392.7,391,393.7z"/>
					</g>
					<g>
						<path fill="#37B34A" d="M372.4,398.7c6.3-8.6,15.5-15.3,25.3-19.5c20.7-10.6,39.4-31.1,44.7-54.1c5.3-20.5-0.5-46.6-18.3-59.6
							c-13.8-10.2-26.2-8.8-26-9.1c-0.3,0.4,12-0.6,25.5,9.7c18.4,14.1,20.7,37.6,17.3,58.7c-5.4,22.3-23.5,42.3-43.8,52.5
							c-4,1.7-7.6,3.6-10.7,5.6c-11.8,7.5-16.3,14.3-16.3,14.3C371.1,397.8,371.6,398.1,372.4,398.7z"/>
					</g>
					<g>
						<g>
							<path fill="#37B34A" d="M360.5,373.8c0,0,4.9,0.5,6.5,4.1c2,4.5,1.1,8.9,1.1,8.9s-4.9-1.4-6.5-3.7
								C359.4,379.9,360.5,373.8,360.5,373.8z"/>
							<path fill="#37B34A" d="M351.9,397.8c0,0,5,0.5,8.6-2.7c4.5-3.9,6.2-8.3,6.2-8.3s-5.4,0.5-8.3,2.4
								C354.3,391.9,351.9,397.8,351.9,397.8z"/>
						</g>
						<g>
							<path fill="#37B34A" d="M352.9,371.3c0,0,4.5,1.5,5.4,5.5c1.1,4.9-0.4,9.2-0.4,9.2s-4.3-2.4-5.4-5.1
								C350.8,377.1,352.9,371.3,352.9,371.3z"/>
							<path fill="#37B34A" d="M340.8,393.4c0,0,4.6,1.6,8.5-0.8c4.9-2.9,7.1-7,7.1-7s-5.2-0.6-8.2,0.7
								C344,388,340.8,393.4,340.8,393.4z"/>
						</g>
						<g>
							<path fill="#37B34A" d="M346,367.1c0,0,3.9,2.4,4.1,6.5c0.2,5.2-1.9,9.1-1.9,9.1s-3.6-3.3-4.3-6.2
								C343,372.5,346,367.1,346,367.1z"/>
							<path fill="#37B34A" d="M330.8,386.5c0,0,4.1,2.6,8.2,1.1c5.1-1.9,7.9-5.4,7.9-5.4s-4.8-1.7-7.8-1.1
								C334.8,381.9,330.8,386.5,330.8,386.5z"/>
						</g>
						<g>
							<path fill="#37B34A" d="M340.1,361.4c0,0,3.3,3.2,2.8,7.3c-0.7,5.2-3.4,8.6-3.4,8.6s-2.9-4-3-7
								C336.3,366.1,340.1,361.4,340.1,361.4z"/>
							<path fill="#37B34A" d="M322.5,377.3c0,0,3.4,3.4,7.5,2.8c5.1-0.7,8.4-3.7,8.4-3.7s-4.2-2.7-7.2-2.7
								C327,373.7,322.5,377.3,322.5,377.3z"/>
						</g>
						<g>
							<path fill="#37B34A" d="M335.3,354.4c0,0,2.5,3.8,1.3,7.8c-1.5,5-4.6,7.9-4.6,7.9s-2-4.6-1.6-7.6
								C331,358.4,335.3,354.4,335.3,354.4z"/>
							<path fill="#37B34A" d="M316.1,366.5c0,0,2.7,4,6.6,4.3c4.9,0.4,8.5-1.9,8.5-1.9s-3.5-3.5-6.3-4.1
								C321,363.9,316.1,366.5,316.1,366.5z"/>
						</g>
						<g>
							<path fill="#37B34A" d="M332.1,346.5c0,0,1.7,4.3-0.1,8c-2.3,4.6-5.7,6.8-5.7,6.8s-1.1-4.9-0.2-7.7
								C327.3,349.6,332.1,346.5,332.1,346.5z"/>
							<path fill="#37B34A" d="M311.7,354.6c0,0,1.9,4.4,5.6,5.5c4.6,1.4,8.4-0.1,8.4-0.1s-2.7-4.1-5.2-5.3
								C316.9,353.1,311.7,354.6,311.7,354.6z"/>
						</g>
						<g>
							<path fill="#37B34A" d="M330.3,337.9c0,0,0.9,4.5-1.4,7.8c-2.9,4.1-6.5,5.6-6.5,5.6s-0.2-5,1.1-7.6
								C325.3,340.1,330.3,337.9,330.3,337.9z"/>
							<path fill="#37B34A" d="M309.5,342.1c0,0,1.1,4.6,4.4,6.4c4.2,2.2,8,1.5,8,1.5s-1.8-4.5-4.1-6.2
								C314.7,341.6,309.5,342.1,309.5,342.1z"/>
						</g>
						<g>
							<path fill="#37B34A" d="M330,329c0,0,0.1,4.6-2.7,7.5c-3.5,3.5-7.2,4.3-7.2,4.3s0.6-4.9,2.4-7.2C324.9,330.2,330,329,330,329
								z"/>
							<path fill="#37B34A" d="M309.5,329.5c0,0,0.2,4.6,3.2,7c3.7,2.9,7.4,2.9,7.4,2.9s-1-4.8-2.8-6.7
								C314.6,329.8,309.5,329.5,309.5,329.5z"/>
						</g>
						<g>
							<path fill="#37B34A" d="M331.3,319.6c0,0-0.7,4.6-3.8,6.9c-3.9,2.9-7.5,3-7.5,3s1.4-4.7,3.5-6.7
								C326.3,320,331.3,319.6,331.3,319.6z"/>
							<path fill="#37B34A" d="M311.6,316.8c0,0-0.6,4.5,1.9,7.2c3,3.4,6.6,4.1,6.6,4.1s-0.1-4.8-1.6-7
								C316.5,318,311.6,316.8,311.6,316.8z"/>
						</g>
						<g>
							<path fill="#37B34A" d="M334.2,310.2c0,0-1.4,4.4-4.8,6.2c-4.2,2.2-7.7,1.7-7.7,1.7s2.2-4.4,4.4-6
								C329.4,309.9,334.2,310.2,334.2,310.2z"/>
							<path fill="#37B34A" d="M315.8,304.5c0,0-1.3,4.3,0.6,7.3c2.4,3.8,5.6,5,5.6,5s0.7-4.7-0.3-7.1
								C320.4,306.3,315.8,304.5,315.8,304.5z"/>
						</g>
						<g>
							<path fill="#37B34A" d="M338.6,301.2c0,0-2.1,4.2-5.6,5.4c-4.3,1.5-7.6,0.5-7.6,0.5s2.8-3.9,5.2-5.2
								C334.2,300.2,338.6,301.2,338.6,301.2z"/>
							<path fill="#37B34A" d="M322.2,293c0,0-2,4-0.7,7.2c1.6,4,4.5,5.7,4.5,5.7s1.5-4.5,0.9-7C326.2,295.4,322.2,293,322.2,293z"
								/>
						</g>
						<g>
							<path fill="#37B34A" d="M344.5,292.8c0,0-2.7,3.8-6.1,4.5c-4.3,0.9-7.2-0.6-7.2-0.6s3.3-3.5,5.9-4.4
								C340.5,291.1,344.5,292.8,344.5,292.8z"/>
							<path fill="#37B34A" d="M330.4,282.3c0,0-2.6,3.7-1.9,7c0.9,4.2,3.3,6.2,3.3,6.2s2.2-4.3,2.1-6.8
								C333.8,285.2,330.4,282.3,330.4,282.3z"/>
						</g>
						<g>
							<path fill="#37B34A" d="M351.4,285.2c0,0-3.1,3.4-6.4,3.6c-4.2,0.2-6.7-1.6-6.7-1.6s3.8-3,6.3-3.6
								C348,282.8,351.4,285.2,351.4,285.2z"/>
							<path fill="#37B34A" d="M340,272.8c0,0-3.1,3.3-3,6.7c0.1,4.2,2.1,6.6,2.1,6.6s2.8-4,3.1-6.5
								C342.8,276.1,340,272.8,340,272.8z"/>
						</g>
						<g>
							<path fill="#37B34A" d="M359.2,278.6c0,0-3.4,2.9-6.5,2.6c-3.9-0.4-5.9-2.6-5.9-2.6s4-2.5,6.4-2.6
								C356.5,275.7,359.2,278.6,359.2,278.6z"/>
							<path fill="#37B34A" d="M350.8,264.4c0,0-3.4,2.9-3.9,6.3c-0.6,4.2,0.8,6.9,0.8,6.9s3.2-3.6,4-6
								C352.7,268.1,350.8,264.4,350.8,264.4z"/>
						</g>
						<g>
							<path fill="#37B34A" d="M367.5,273.2c0,0-3.6,2.4-6.4,1.5c-3.5-1-5-3.6-5-3.6s4.1-1.9,6.3-1.7
								C365.4,269.7,367.5,273.2,367.5,273.2z"/>
							<path fill="#37B34A" d="M362.1,257.5c0,0-3.6,2.4-4.6,5.8c-1.3,4.2-0.4,7.1-0.4,7.1s3.6-3.1,4.6-5.5
								C363.2,261.5,362.1,257.5,362.1,257.5z"/>
						</g>
						<path fill="#37B34A" d="M362.2,267.1c0,0,2.7,0.9,5-0.6c2.9-1.8,4.4-4.3,4.4-4.3s-3-0.4-4.9,0.4
							C364.3,263.7,362.2,267.1,362.2,267.1z"/>
						<g>
							<path fill="#37B34A" d="M402.9,362.8c0,0-4.9,2.9-6.5,7.4c-2,5.5-1.1,9.5-1.1,9.5s4.9-3.9,6.5-7
								C404,368.3,402.9,362.8,402.9,362.8z"/>
							<path fill="#37B34A" d="M411.5,382.8c0,0-5,2.7-8.6,1.3c-4.5-1.7-6.2-5.2-6.2-5.2s5.4-2.2,8.3-1.7
								C409.1,377.9,411.5,382.8,411.5,382.8z"/>
						</g>
						<g>
							<path fill="#37B34A" d="M410.5,356.7c0,0-4.5,3.5-5.4,7.9c-1.1,5.5,0.4,9,0.4,9s4.3-4.4,5.4-7.5
								C412.6,361.6,410.5,356.7,410.5,356.7z"/>
							<path fill="#37B34A" d="M422.6,374c0,0-4.6,3.2-8.5,2.4c-4.9-0.9-7.1-3.9-7.1-3.9s5.2-2.9,8.2-2.9
								C419.3,369.8,422.6,374,422.6,374z"/>
						</g>
						<g>
							<path fill="#37B34A" d="M417.4,349.7c0,0-3.9,4-4.1,8.2c-0.2,5.3,1.9,8.3,1.9,8.3s3.6-4.7,4.3-7.8
								C420.4,353.9,417.4,349.7,417.4,349.7z"/>
							<path fill="#37B34A" d="M432.6,364.2c0,0-4.1,3.6-8.2,3.4c-5.1-0.2-7.9-2.6-7.9-2.6s4.8-3.5,7.8-3.9
								C428.6,360.6,432.6,364.2,432.6,364.2z"/>
						</g>
						<g>
							<path fill="#37B34A" d="M423.3,341.8c0,0-3.3,4.3-2.8,8.3c0.7,4.9,3.4,7.5,3.4,7.5s2.9-5,3-8
								C427.1,345.3,423.3,341.8,423.3,341.8z"/>
							<path fill="#37B34A" d="M440.9,353.4c0,0-3.4,3.9-7.5,4.3c-5.1,0.5-8.4-1.3-8.4-1.3s4.2-4,7.2-4.8
								C436.4,350.5,440.9,353.4,440.9,353.4z"/>
						</g>
						<g>
							<path fill="#37B34A" d="M428.1,333.3c0,0-2.5,4.6-1.3,8.2c1.5,4.5,4.6,6.5,4.6,6.5s2-5.1,1.6-7.9
								C432.4,336.1,428.1,333.3,428.1,333.3z"/>
							<path fill="#37B34A" d="M447.3,341.8c0,0-2.7,4.2-6.6,5.1c-4.9,1.1-8.5-0.1-8.5-0.1s3.5-4.3,6.3-5.5
								C442.4,339.7,447.3,341.8,447.3,341.8z"/>
						</g>
						<g>
							<path fill="#37B34A" d="M431.3,324.5c0,0-1.7,4.7,0.1,8c2.3,4.1,5.7,5.5,5.7,5.5s1.1-5.1,0.2-7.8
								C436,326.5,431.3,324.5,431.3,324.5z"/>
							<path fill="#37B34A" d="M451.7,329.8c0,0-1.9,4.4-5.6,5.8c-4.6,1.8-8.4,1.1-8.4,1.1s2.7-4.6,5.2-6.1
								C446.5,328.4,451.7,329.8,451.7,329.8z"/>
						</g>
						<g>
							<path fill="#37B34A" d="M433.1,315.5c0,0-0.9,4.7,1.4,7.5c2.9,3.5,6.5,4.4,6.5,4.4s0.2-5-1.1-7.4
								C438.1,316.6,433.1,315.5,433.1,315.5z"/>
							<path fill="#37B34A" d="M453.9,317.3c0,0-1.1,4.5-4.4,6.5c-4.2,2.4-8,2.3-8,2.3s1.8-4.8,4.1-6.7
								C448.7,316.8,453.9,317.3,453.9,317.3z"/>
						</g>
						<g>
							<path fill="#37B34A" d="M433.4,306.5c0,0-0.1,4.6,2.7,6.9c3.5,2.8,7.2,3.1,7.2,3.1s-0.6-4.8-2.4-6.9
								C438.5,306.7,433.4,306.5,433.4,306.5z"/>
							<path fill="#37B34A" d="M453.9,304.6c0,0-0.2,4.6-3.2,7c-3.7,3-7.4,3.5-7.4,3.5s1-4.9,2.8-7
								C448.8,305,453.9,304.6,453.9,304.6z"/>
						</g>
						<g>
							<path fill="#37B34A" d="M432.1,297.4c0,0,0.7,4.3,3.8,6c3.9,2.1,7.5,1.7,7.5,1.7s-1.5-4.5-3.5-6.2
								C437.1,296.7,432.1,297.4,432.1,297.4z"/>
							<path fill="#37B34A" d="M451.8,292c0,0,0.6,4.5-1.9,7.3c-3,3.5-6.6,4.6-6.6,4.6s0.1-4.8,1.6-7.2
								C446.9,293.3,451.8,292,451.8,292z"/>
						</g>
						<g>
							<path fill="#37B34A" d="M429.2,288.8c0,0,1.4,4,4.8,5c4.2,1.3,7.7,0.3,7.7,0.3s-2.2-4-4.4-5.2
								C434,287.2,429.2,288.8,429.2,288.8z"/>
							<path fill="#37B34A" d="M447.5,279.8c0,0,1.3,4.2-0.6,7.3c-2.4,3.9-5.6,5.6-5.6,5.6s-0.7-4.6,0.3-7.2
								C443,282.1,447.5,279.8,447.5,279.8z"/>
						</g>
						<g>
							<path fill="#37B34A" d="M424.8,281.2c0,0,2.1,3.4,5.6,3.7c4.3,0.4,7.6-1.2,7.6-1.2s-2.8-3.4-5.2-4.1
								C429.2,278.7,424.8,281.2,424.8,281.2z"/>
							<path fill="#37B34A" d="M441.2,269c0,0,2,3.7,0.7,7.1c-1.6,4.2-4.5,6.5-4.5,6.5s-1.5-4.2-0.9-6.9
								C437.2,272.1,441.2,269,441.2,269z"/>
						</g>
						<g>
							<path fill="#37B34A" d="M418.9,274.8c0,0,2.7,2.8,6.1,2.4c4.3-0.5,7.2-2.7,7.2-2.7s-3.3-2.6-5.9-2.8
								C422.9,271.6,418.9,274.8,418.9,274.8z"/>
							<path fill="#37B34A" d="M433,260c0,0,2.6,3.1,1.9,6.6c-0.9,4.4-3.3,7-3.3,7s-2.2-3.7-2.1-6.3C429.6,263.7,433,260,433,260z"
								/>
						</g>
						<g>
							<path fill="#37B34A" d="M412,270c0,0,3.1,2.1,6.4,1c4.2-1.3,6.7-4,6.7-4s-3.8-1.8-6.3-1.4C415.4,266.2,412,270,412,270z"/>
							<path fill="#37B34A" d="M423.4,253.2c0,0,3.1,2.4,3,5.8c-0.1,4.3-2.1,7.3-2.1,7.3s-2.8-3-3.1-5.4
								C420.6,257.4,423.4,253.2,423.4,253.2z"/>
						</g>
						<g>
							<path fill="#37B34A" d="M404.2,266.9c0,0,3.4,1.3,6.5-0.4c3.9-2.1,5.9-5.1,5.9-5.1s-4-0.9-6.4,0
								C406.9,262.6,404.2,266.9,404.2,266.9z"/>
							<path fill="#37B34A" d="M412.6,248.9c0,0,3.4,1.5,3.9,4.7c0.6,4-0.8,7.2-0.8,7.2s-3.2-2.2-4-4.4
								C410.7,253.4,412.6,248.9,412.6,248.9z"/>
						</g>
						<g>
							<path fill="#37B34A" d="M395.9,265.6c0,0,3.6,0.5,6.4-1.7c3.5-2.7,5-5.9,5-5.9s-4.1,0-6.3,1.3
								C398,261.1,395.9,265.6,395.9,265.6z"/>
							<path fill="#37B34A" d="M401.3,247.2c0,0,3.6,0.7,4.6,3.6c1.3,3.6,0.4,6.9,0.4,6.9s-3.6-1.4-4.6-3.2
								C400.1,251.8,401.3,247.2,401.3,247.2z"/>
						</g>
						<path fill="#37B34A" d="M401.2,256.8c0,0-2.7,2.2-5,2c-2.9-0.3-4.4-2-4.4-2s3-2,4.9-2.2C399.1,254.5,401.2,256.8,401.2,256.8z
							"/>
					</g>
				</g>
				<g>
					<g>
						<path fill="#FFFFFF" d="M401.6,294.4c-13.3,3.3-26.5,7.1-39.8,10.4c-0.3,0.1-0.5,0.4-0.5,0.7c1,19.7,2.1,39.4,3.1,59.1
							c0,0.3,0.2,0.6,0.5,0.6c0,0,5.1,0.9,16.7-2.2c11.7-3.2,16.9-6.7,16.9-6.7c0.3-0.2,0.5-0.6,0.5-0.9c1-20.2,2.1-40.4,3.1-60.6
							C402.1,294.5,401.9,294.3,401.6,294.4z"/>
						<path fill="#FFFFFF" d="M402.7,290c-14,3.6-27.9,7.4-41.9,11c-0.3,0.1-0.5,0.4-0.5,0.7c1,19.7,2.1,39.4,3.1,59.1
							c0,0.3,0.2,0.6,0.5,0.6c0,0,6.1,0.9,17.8-2.2c11.7-3.2,17.9-7.2,17.9-7.2c0.3-0.2,0.5-0.6,0.5-0.9c1-20.2,2.1-40.4,3.1-60.6
							C403.2,290.1,402.9,289.9,402.7,290z"/>
						<path fill="#FFFFFF" d="M357.8,294.2c1.4,17.9,2.8,35.7,4.3,53.6c0,0.3,0.2,0.6,0.5,0.6c0,0,5.5,1.4,19.1-2.3
							c13.6-3.7,19.3-7.8,19.3-7.8c0.3-0.2,0.5-0.6,0.5-0.9c1.4-18.5,2.8-37.1,4.3-55.6C389.6,285.6,373.8,290.3,357.8,294.2z"/>
						<path fill="#FFFFFF" d="M356.5,295c0.4,4.3,0.6,6.4,1,10.7c0,0.3,0.2,0.6,0.5,0.6c0,0,7.2,0.5,23.6-3.9
							c16.3-4.4,23.7-8.3,23.7-8.3c0.3-0.2,0.5-0.6,0.5-0.9c0.4-4.5,0.6-6.7,1-11.2C390,286.2,373.4,290.8,356.5,295z"/>
						<path fill="#FFFFFF" d="M355.4,293.3c0.1,1.4,0.2,2,0.3,3.4c0,0.3,0.2,0.6,0.5,0.6c0,0,10.6-0.9,25.4-4.9
							c14.8-4,25.5-8.2,25.5-8.2c0.3-0.2,0.5-0.6,0.5-0.9c0.1-1.4,0.2-2.1,0.3-3.5C390.4,284.1,373,289,355.4,293.3z"/>
						<path fill="#FFFFFF" d="M354.2,291.6c0.1,0.8,0.1,1.2,0.2,2c0,0.3,0.2,0.6,0.5,0.6c0,0,12-0.9,26.7-4.9
							c9.1-2.5,18-5.5,26.9-8.8c0.3-0.2,0.5-0.6,0.5-0.9c0.1-0.9,0.1-1.3,0.2-2.1c-9,3.3-18.4,5.9-27.6,8.4
							C372.7,288.4,363.5,290.8,354.2,291.6z"/>
						<g opacity="0.4">
							<g>
								<path fill="#FFFFFF" d="M377.1,303.6c0-0.1,0-0.2,0-0.3"/>
								<path fill="#FFFFFF" d="M358.2,306.1c0,0.1-0.1,0.2-0.1,0.3"/>
								<path fill="#FFFFFF" d="M405.3,294.1c0-0.1-0.1-0.1-0.1-0.2"/>
								<path fill="#FFFFFF" d="M391,299.4c0,0.1,0,0.2,0,0.3"/>
							</g>
						</g>
						<path fill="#FFFFFF" d="M353.6,290.5c9.5,0.3,19.1-2.8,28.1-5.2c9.3-2.5,19.3-4.9,28.1-9.1c0,0.6,0,0.9,0,1.5
							c0,0.3-0.2,0.7-0.5,0.9c-9.1,3.1-18.4,6.1-27.7,8.7c-9,2.5-18.2,4.3-27.5,5.3c-0.3-0.1-0.5-0.3-0.5-0.6
							C353.6,291.4,353.6,291.1,353.6,290.5z"/>
						<path fill="#FFFFFF" d="M409.8,276.2c-0.1-0.3-19.1,2.8-28.1,5.2c-9.3,2.5-28.1,9.1-28.1,9.1c0.1,0.3,19.1-2.8,28.1-5.2
							C391,282.8,409.8,276.2,409.8,276.2z"/>
					</g>
				</g>
			</g>
		</g>
	</g>
</g>
</svg>
